<mxfile host="app.diagrams.net" agent="Mozilla/5.0 (Macintosh; Intel Mac OS X 10_15_7) AppleWebKit/537.36 (KHTML, like Gecko) Chrome/137.0.0.0 Safari/537.36" version="28.0.7">
  <diagram name="Page-1" id="8tHRP0f3SLrGrxU41VlK">
    <mxGraphModel dx="838" dy="596" grid="1" gridSize="10" guides="1" tooltips="1" connect="1" arrows="1" fold="1" page="1" pageScale="1" pageWidth="827" pageHeight="1169" math="0" shadow="0">
      <root>
        <mxCell id="0" />
        <mxCell id="1" parent="0" />
        <mxCell id="elF9djI0Z06_dVAVMSv7-6" value="&lt;span data-canva-clipboard=&quot;ewAiAGEAIgA6ADUALAAiAGgAIgA6ACIAdwB3AHcALgBjAGEAbgB2AGEALgBjAG8AbQAiACwAIgBjACIAOgAiAEQAQQBHAHUAcABWAEsAWQBwAEYANAAiACwAIgBpACIAOgAiADEAdAAtAGkAOQBiAFgARQBIAGoAdAAxADAAWgBHADAARgB5AGYAXwBDAEEAIgAsACIAYgAiADoAMQA3ADUAMwA5ADcANAA0ADUAMwA5ADgAOAAsACIAagAiADoAWwB7AH0ALAB7ACIAQQAiADoAewAiAEsAIgA6AHsAfQAsACIARAAiADoAewB9ACwAIgBFACIAOgB7AH0ALAAiAFMAIgA6AHsAfQAsACIARgAiADoAewAiAEEAIgA6ACIASQBkAGUAbgB0AGkAdAB5AC4AcABuAGcAIgAsACIAQgAiADoAMQB9ACwAIgBHACIAOgB7AH0ALAAiAEgAIgA6AHsAIgBCACIAOgAiAG4AbwBuAGUAIgAsACIAQwAiADoAIgAjADAAMAAwADAAMAAwACIALAAiAEQAIgA6ACIAIwBmAGYAZgBmAGYAZgAiAH0ALAAiAEoAIgA6AHsAIgBGACIAOgAiACMAMAAwADAAMAAwADAAIgB9ACwAIgBQACIAOgB7AH0AfQB9ACwAewAiAEEAIgA6AHsAIgBLACIAOgB7AH0ALAAiAEQAIgA6AHsAfQAsACIARQAiADoAewB9ACwAIgBTACIAOgB7AH0ALAAiAEYAIgA6AHsAIgBBACIAOgAiAEkAZABlAG4AdABpAHQAeQAuAHAAbgBnACIALAAiAEIAIgA6ADEAfQAsACIARwAiADoAewB9ACwAIgBIACIAOgB7ACIAQgAiADoAIgBuAG8AbgBlACIALAAiAEMAIgA6ACIAIwAwADAAMAAwADAAMAAiACwAIgBEACIAOgAiACMAZgBmAGYAZgBmAGYAIgB9ACwAIgBKACIAOgB7ACIARgAiADoAIgAjADAAMAAwADAAMAAwACIAfQAsACIAUAAiADoAewB9AH0AfQAsAHsAfQAsAHsAIgBBACIAOgB7ACIASwAiADoAewB9ACwAIgBEACIAOgB7AH0ALAAiAEUAIgA6AHsAfQAsACIAUwAiADoAewB9ACwAIgBGACIAOgB7ACIAQQAiADoAIgBJAGQAZQBuAHQAaQB0AHkALgBwAG4AZwAiACwAIgBCACIAOgAxAH0ALAAiAEcAIgA6AHsAfQAsACIASAAiADoAewAiAEIAIgA6ACIAbgBvAG4AZQAiACwAIgBDACIAOgAiACMAMAAwADAAMAAwADAAIgAsACIARAAiADoAIgAjAGYAZgBmAGYAZgBmACIAfQAsACIASgAiADoAewAiAEYAIgA6ACIAIwAwADAAMAAwADAAMAAiAH0ALAAiAFAAIgA6AHsAfQB9AH0ALAB7AH0ALAB7AH0ALAB7AH0ALAB7AH0ALAB7ACIAQQAiADoAewAiAEsAIgA6AHsAfQAsACIARAAiADoAewB9ACwAIgBFACIAOgB7AH0ALAAiAFMAIgA6AHsAfQAsACIARgAiADoAewAiAEEAIgA6ACIASQBkAGUAbgB0AGkAdAB5AC4AcABuAGcAIgAsACIAQgAiADoAMQB9ACwAIgBHACIAOgB7AH0ALAAiAEgAIgA6AHsAIgBCACIAOgAiAG4AbwBuAGUAIgAsACIAQwAiADoAIgAjADAAMAAwADAAMAAwACIALAAiAEQAIgA6ACIAIwBmAGYAZgBmAGYAZgAiAH0ALAAiAEoAIgA6AHsAIgBGACIAOgAiACMAMAAwADAAMAAwADAAIgB9ACwAIgBQACIAOgB7AH0AfQB9ACwAewB9ACwAewB9ACwAewAiAEEAIgA6AHsAIgBLACIAOgB7AH0ALAAiAEQAIgA6AHsAfQAsACIARQAiADoAewB9ACwAIgBTACIAOgB7AH0ALAAiAEYAIgA6AHsAIgBBACIAOgAiAEkAZABlAG4AdABpAHQAeQAuAHAAbgBnACIALAAiAEIAIgA6ADEAfQAsACIARwAiADoAewB9ACwAIgBIACIAOgB7ACIAQgAiADoAIgBuAG8AbgBlACIALAAiAEMAIgA6ACIAIwAwADAAMAAwADAAMAAiACwAIgBEACIAOgAiACMAZgBmAGYAZgBmAGYAIgB9ACwAIgBKACIAOgB7ACIARgAiADoAIgAjADAAMAAwADAAMAAwACIAfQAsACIAUAAiADoAewB9ACwAIgBOACIAOgBbAHsAIgBBAD8AIgA6ACIARAAiAH0AXQB9AH0ALAB7AH0ALAB7AH0ALAB7AH0ALAB7ACIAQQAiADoAewAiAEsAIgA6AHsAfQAsACIARAAiADoAewB9ACwAIgBFACIAOgB7AH0ALAAiAFMAIgA6AHsAfQAsACIARgAiADoAewAiAEEAIgA6ACIASQBkAGUAbgB0AGkAdAB5AC4AcABuAGcAIgAsACIAQgAiADoAMQB9ACwAIgBHACIAOgB7AH0ALAAiAEgAIgA6AHsAIgBCACIAOgAiAG4AbwBuAGUAIgAsACIAQwAiADoAIgAjADAAMAAwADAAMAAwACIALAAiAEQAIgA6ACIAIwBmAGYAZgBmAGYAZgAiAH0ALAAiAEoAIgA6AHsAIgBGACIAOgAiACMAMAAwADAAMAAwADAAIgB9ACwAIgBQACIAOgB7AH0AfQB9ACwAewB9ACwAewB9ACwAewAiAEEAIgA6AHsAIgBLACIAOgB7AH0ALAAiAEQAIgA6AHsAfQAsACIARQAiADoAewB9ACwAIgBTACIAOgB7AH0ALAAiAEYAIgA6AHsAIgBBACIAOgAiAEkAZABlAG4AdABpAHQAeQAuAHAAbgBnACIALAAiAEIAIgA6ADEAfQAsACIARwAiADoAewB9ACwAIgBIACIAOgB7ACIAQgAiADoAIgBuAG8AbgBlACIALAAiAEMAIgA6ACIAIwAwADAAMAAwADAAMAAiACwAIgBEACIAOgAiACMAZgBmAGYAZgBmAGYAIgB9ACwAIgBKACIAOgB7ACIARgAiADoAIgAjADAAMAAwADAAMAAwACIAfQAsACIAUAAiADoAewB9ACwAIgBOACIAOgBbAHsAIgBBAD8AIgA6ACIARAAiAH0AXQB9AH0ALAB7AH0ALAB7ACIAQQAiADoAewAiAEsAIgA6AHsAfQAsACIARAAiADoAewB9ACwAIgBFACIAOgB7AH0ALAAiAFMAIgA6AHsAfQAsACIARgAiADoAewAiAEEAIgA6ACIASQBkAGUAbgB0AGkAdAB5AC4AcABuAGcAIgAsACIAQgAiADoAMQB9ACwAIgBHACIAOgB7AH0ALAAiAEgAIgA6AHsAIgBCACIAOgAiAG4AbwBuAGUAIgAsACIAQwAiADoAIgAjADAAMAAwADAAMAAwACIALAAiAEQAIgA6ACIAIwBmAGYAZgBmAGYAZgAiAH0ALAAiAEoAIgA6AHsAIgBGACIAOgAiACMAMAAwADAAMAAwADAAIgB9ACwAIgBQACIAOgB7AH0AfQB9ACwAewB9ACwAewB9ACwAewAiAEEAIgA6AHsAIgBLACIAOgB7AH0ALAAiAEQAIgA6AHsAfQAsACIARQAiADoAewB9ACwAIgBTACIAOgB7AH0ALAAiAEYAIgA6AHsAIgBBACIAOgAiAEkAZABlAG4AdABpAHQAeQAuAHAAbgBnACIALAAiAEIAIgA6ADEAfQAsACIARwAiADoAewB9ACwAIgBIACIAOgB7ACIAQgAiADoAIgBuAG8AbgBlACIALAAiAEMAIgA6ACIAIwAwADAAMAAwADAAMAAiACwAIgBEACIAOgAiACMAZgBmAGYAZgBmAGYAIgB9ACwAIgBKACIAOgB7ACIARgAiADoAIgAjADAAMAAwADAAMAAwACIAfQAsACIAUAAiADoAewB9AH0AfQAsAHsAfQAsAHsAfQAsAHsAfQAsAHsAIgBBACIAOgB7ACIASwAiADoAewB9ACwAIgBEACIAOgB7AH0ALAAiAEUAIgA6AHsAfQAsACIAUwAiADoAewB9ACwAIgBGACIAOgB7ACIAQQAiADoAIgBJAGQAZQBuAHQAaQB0AHkALgBwAG4AZwAiACwAIgBCACIAOgAxAH0ALAAiAEcAIgA6AHsAfQAsACIASAAiADoAewAiAEIAIgA6ACIAbgBvAG4AZQAiACwAIgBDACIAOgAiACMAMAAwADAAMAAwADAAIgAsACIARAAiADoAIgAjAGYAZgBmAGYAZgBmACIAfQAsACIASgAiADoAewAiAEYAIgA6ACIAIwAwADAAMAAwADAAMAAiAH0ALAAiAFAAIgA6AHsAfQB9AH0AXQAsACIAQQA/ACIAOgAiAEIAIgAsACIAQQAiADoAWwB7ACIAQQAiADoAMgAwADYALgA5ADEAMwA0ADkAMQA1ADIANQA1ADUANwA1ACwAIgBCACIAOgA4ADcALgA5ADIANwA5ADgANgA5ADMANgAxADUAOAA2ADIALAAiAEQAIgA6ADEANwA0ADAALgA1ADEAMAAyADkAOAA3ADMAMQAxADYANgA2ACwAIgBDACIAOgA2ADIANQAuADAAMAA0ADMANAA1ADQAOQA2ADcAOQAwADMALAAiAFQAIgA6AHsAIgBBAEEAQQBCAG0ARwBFAEcASwBQAHgAQwB3AHoAaQBQAGwAcwBhAEkAVgBRACIAOgAxAH0ALAAiAFcAIgA6AHsAIgBSAGoAZABpAGcAUAA0AFMAZgBkAHQATABuAGMAWQAwAEEAIgA6ACIAUgBqAGQAaQBnAFAANABTAGYAZAB0AEwAbgBjAFkAMABBAC0ANQAiAH0ALAAiAEEAPwAiADoAIgBIACIALAAiAGIAIgA6ADEANwA0ADAALgA1ADEAMAAyADkAOAA3ADMAMQAxADYANgA2ACwAIgBhACIAOgA2ADIANQAuADAAMAA0ADMANAA1ADQAOQA2ADcAOQAwADMALAAiAGMAIgA6AFsAewAiAEEAIgA6ADMAOQAuADgAOAAwADcANQAzADcANgA1ADIAOAAwADkAOAA2ACwAIgBCACIAOgAyADYAMAAuADQAMgAyADQANgA2ADcAOAA0ADEAMAA0ADgALAAiAEQAIgA6ADMAMwA2AC4AMAAyADAANgA0ADQANAAxADIAMAA4ADYAMQAsACIAQwAiADoAMgAyADgALgAxADYAMwA1ADcAMQA5ADcAMQAzADcAMgA1ADYALAAiAFQAIgA6AHsAIgBBAEEAQQBCAG0ARwBFAEcASwBQAHgAQwB3AHoAaQBQAGwAcwBhAEkAVgBRACIAOgAxAH0ALAAiAEEAPwAiADoAIgBKACIALAAiAGEAIgA6AHsAIgBEACIAOgA2ADQALAAiAEMAIgA6ADYANAB9ACwAIgBiACIAOgBbAHsAIgBBACIAOgAiAE0AMAAgADAASAA2ADQAVgA2ADQASAAwAHoAIgAsACIAQgAiADoAewAiAEEAIgA6AGYAYQBsAHMAZQAsACIAQwAiADoAIgAjAGYAYQBmAGEAZgBhACIAfQAsACIARAAiADoANQAxAH0AXQAsACIAYwAiADoAewAiAEEAIgA6AHsAIgBEACIAOgA2ADQALAAiAEMAIgA6ADYANAB9ACwAIgBCACIAOgA3ADkALgA2ADQAMgAyADEANAA1ADEANgA0ADQAOAA1ADgALAAiAEMAIgA6ADUANAAuADAANwA4ADMAOAAwADEANAAxADEAMgA2ADgANwAsACIARAAiADoAIgBBACIALAAiAEUAIgA6ACIAQQAiAH0ALAAiAGUAIgA6AHsAfQAsACIAZgAiADoAWwB7ACIAQQAiADoAewAiAEEAIgA6AFsAewAiAEEAPwAiADoAIgBBACIALAAiAEEAIgA6ACIAXABuACIAfQBdACwAIgBCACIAOgBbAHsAIgBBAD8AIgA6ACIAQQAiACwAIgBBACIAOgB7ACIAZgBvAG4AdAAtAHMAaQB6AGUAIgA6AHsAIgBCACIAOgAiADIANQAuADMAMwAzADMAIgB9ACwAIgBmAG8AbgB0AC0AawBlAHIAbgBpAG4AZwAiADoAewAiAEIAIgA6ACIAbgBvAHIAbQBhAGwAIgB9ACwAIgBmAG8AbgB0AC0AZgBhAG0AaQBsAHkAIgA6AHsAIgBCACIAOgAiAFkAQQBGAGQASgBqAFQAawA1AFUAVQAsADAAIgB9ACwAIgBmAG8AbgB0AC0AdwBlAGkAZwBoAHQAIgA6AHsAIgBCACIAOgAiAG4AbwByAG0AYQBsACIAfQAsACIAZgBvAG4AdAAtAHMAdAB5AGwAZQAiADoAewAiAEIAIgA6ACIAbgBvAHIAbQBhAGwAIgB9ACwAIgB0AGUAeAB0AC0AdAByAGEAbgBzAGYAbwByAG0AIgA6AHsAIgBCACIAOgAiAG4AbwBuAGUAIgB9ACwAIgBsAGUAYQBkAGkAbgBnACIAOgB7ACIAQgAiADoAIgAxADQAMAAwAC4AMAAiAH0ALAAiAHQAcgBhAGMAawBpAG4AZwAiADoAewAiAEIAIgA6ACIAMAAuADAAIgB9ACwAIgB0AGUAeAB0AC0AYQBsAGkAZwBuACIAOgB7ACIAQgAiADoAIgBjAGUAbgB0AGUAcgAiAH0ALAAiAGMAbwBsAG8AcgAiADoAewAiAEIAIgA6ACIAIwBmAGYAZgBmAGYAZgAiAH0AfQB9ACwAewAiAEEAPwAiADoAIgBCACIALAAiAEEAIgA6ADEAfQAsAHsAIgBBAD8AIgA6ACIAQQAiACwAIgBBACIAOgB7ACIAZgBvAG4AdAAtAHMAaQB6AGUAIgA6AHsAfQAsACIAZgBvAG4AdAAtAGsAZQByAG4AaQBuAGcAIgA6AHsAfQAsACIAZgBvAG4AdAAtAGYAYQBtAGkAbAB5ACIAOgB7AH0ALAAiAGYAbwBuAHQALQB3AGUAaQBnAGgAdAAiADoAewB9ACwAIgBmAG8AbgB0AC0AcwB0AHkAbABlACIAOgB7AH0ALAAiAHQAZQB4AHQALQB0AHIAYQBuAHMAZgBvAHIAbQAiADoAewB9ACwAIgBsAGUAYQBkAGkAbgBnACIAOgB7AH0ALAAiAHQAcgBhAGMAawBpAG4AZwAiADoAewB9ACwAIgB0AGUAeAB0AC0AYQBsAGkAZwBuACIAOgB7AH0ALAAiAGMAbwBsAG8AcgAiADoAewB9AH0AfQBdAH0ALAAiAEIAIgA6AHsAIgBBACIAOgBbADAAXQB9ACwAIgBEACIAOgB7ACIARAAiADoANgA0ACwAIgBDACIAOgA2ADQAfQAsACIARQAiADoAWwAzAC4AMwAzADMANgAzADEANAA3ADUAOAAxADUAOQA5ADIAXQAsACIARgAiADoAIgBCACIAfQBdACwAIgBoACIAOgB7ACIAQQA/ACIAOgAiAEgAIgAsACIAQQAiADoAMgAyADgALgAxADYAMwA1ADcAMQA5ADcAMQAzADcAMgA1ADYAfQB9ACwAewAiAEEAIgA6ADgANwAuADQANgAyADYAMwA2ADYAMgA4ADkAMQA3ADkAOAAsACIAQgAiADoAMgA4ADQALgA0ADMAOQA2ADcAOAAzADQAMAAwADcANgA0ADUALAAiAEQAIgA6ADEAMgA3AC4AMQA2ADUAMwAzADIANAAyADAAMQA3ADcANQA2ACwAIgBDACIAOgAxADIANwAuADEANgA1ADMAMwAyADQAMgAwADEANwA3ADUANgAsACIAVAAiADoAewAiAEEAQQBBAEIAbQBHAEUARwBLAFAAeABDAHcAegBpAFAAbABzAGEASQBWAFEAIgA6ADEAfQAsACIAQQA/ACIAOgAiAEkAIgAsACIAYQAiADoAewAiAEIAIgA6AHsAIgBBACIAOgB7ACIAQQAiADoAIgBNAEEARwB1AHYAYwBxAFgAdABlAG8AIgAsACIAQgAiADoAMQB9ACwAIgBCACIAOgB7ACIARAAiADoAMQAyADcALgAxADYANQAzADMAMgA0ADIAMAAxADcANwA1ADYALAAiAEMAIgA6ADEAMgA3AC4AMQA2ADUAMwAzADIANAAyADAAMQA3ADcANQA2AH0AfQB9AH0ALAB7ACIAQQAiADoAOAAyAC4AOQAxADUANgAxADEAMQA1ADkAMwAyADAANgAzACwAIgBCACIAOgA0ADQAOQAuADYAMAA1ADAAMQAwADcANgAwADIANQA0ADIALAAiAEQAIgA6ADEAMwA2AC4ANQAxADYAMQAwADYAOAA4ADUAMAA2ADUAMQA0ACwAIgBDACIAOgAxADMANgAuADUAMQA2ADEAMAA2ADgAOAA1ADAANgA1ADEANAAsACIAVAAiADoAewAiAEEAQQBBAEIAbQBHAEUARwBLAFAAeABDAHcAegBpAFAAbABzAGEASQBWAFEAIgA6ADEAfQAsACIAQQA/ACIAOgAiAEkAIgAsACIAYQAiADoAewAiAEIAIgA6AHsAIgBBACIAOgB7ACIAQQAiADoAIgBNAEEARwB1AHYAZQByAFAAYwB4ADgAIgAsACIAQgAiADoAMQB9ACwAIgBCACIAOgB7ACIARAAiADoAMQAzADYALgA1ADEANgAxADAANgA4ADgANQAwADYANQAxADQALAAiAEMAIgA6ADEAMwA2AC4ANQAxADYAMQAwADYAOAA4ADUAMAA2ADUAMQA0AH0AfQB9AH0ALAB7ACIAQQAiADoANAAzAC4ANwA3ADYAOAAxADAAOQA0ADkANAA1ADEAMwAxACwAIgBCACIAOgAzADMANAAuADkAOQA3ADAAOQA5ADkAMgAxADcANQA3ADgANwAsACIARAAiADoAMQA4ADgALgA1ADUAOAA1ADMAMAAzADUAMAA4ADQAMgAwADYALAAiAEMAIgA6ADIAOQAuADkAMwAzADMANAAsACIAVAAiADoAewAiAEEAQQBBAEIAbQBHAEUARwBLAFAAeABDAHcAegBpAFAAbABzAGEASQBWAFEAIgA6ADEAfQAsACIAQQA/ACIAOgAiAEsAIgAsACIAYQAiADoAewAiAEEAIgA6AFsAewAiAEEAPwAiADoAIgBBACIALAAiAEEAIgA6ACIARABhAHQAYQAgAFAAcgBvAGMAZQBzAHMAaQBuAGcAXABuACIAfQBdACwAIgBCACIAOgBbAHsAIgBBAD8AIgA6ACIAQQAiACwAIgBBACIAOgB7ACIAdABlAHgAdAAtAGEAbABpAGcAbgAiADoAewAiAEIAIgA6ACIAYwBlAG4AdABlAHIAIgB9ACwAIgBmAG8AbgB0AC0AdwBlAGkAZwBoAHQAIgA6AHsAIgBCACIAOgAiAGIAbwBsAGQAIgB9ACwAIgBmAG8AbgB0AC0AawBlAHIAbgBpAG4AZwAiADoAewAiAEIAIgA6ACIAbgBvAHIAbQBhAGwAIgB9ACwAIgBmAG8AbgB0AC0AZgBhAG0AaQBsAHkAIgA6AHsAIgBCACIAOgAiAFkAQQBGAGQASgB1AEYAQwBuAGEAdwAsADAAIgB9ACwAIgBmAG8AbgB0AC0AcwBpAHoAZQAiADoAewAiAEIAIgA6ACIAMgA1AC4AMwAzADMAMwAiAH0AfQB9ACwAewAiAEEAPwAiADoAIgBCACIALAAiAEEAIgA6ADEANQB9ACwAewAiAEEAPwAiADoAIgBBACIALAAiAEEAIgA6AHsAIgBzAHAAYQBjAGkAbgBnACIAOgB7ACIAQgAiADoAIgAwAC4AMAAiAH0ALAAiAGMAbwBsAG8AcgAiADoAewAiAEIAIgA6ACIAIwAwADAAMAAwADAAMAAiAH0ALAAiAGwAZQBhAGQAaQBuAGcAIgA6AHsAIgBCACIAOgAiADEANAAwADAALgAwACIAfQAsACIAdABlAHgAdAAtAHQAcgBhAG4AcwBmAG8AcgBtACIAOgB7ACIAQgAiADoAIgBuAG8AbgBlACIAfQAsACIAdAByAGEAYwBrAGkAbgBnACIAOgB7ACIAQgAiADoAIgAwAC4AMAAiAH0AfQB9ACwAewAiAEEAPwAiADoAIgBCACIALAAiAEEAIgA6ADEAfQAsAHsAIgBBAD8AIgA6ACIAQQAiACwAIgBBACIAOgB7ACIAdABlAHgAdAAtAGEAbABpAGcAbgAiADoAewB9ACwAIgBmAG8AbgB0AC0AdwBlAGkAZwBoAHQAIgA6AHsAfQAsACIAZgBvAG4AdAAtAGsAZQByAG4AaQBuAGcAIgA6AHsAfQAsACIAZgBvAG4AdAAtAGYAYQBtAGkAbAB5ACIAOgB7AH0ALAAiAGYAbwBuAHQALQBzAGkAegBlACIAOgB7AH0ALAAiAHMAcABhAGMAaQBuAGcAIgA6AHsAfQAsACIAYwBvAGwAbwByACIAOgB7AH0ALAAiAGwAZQBhAGQAaQBuAGcAIgA6AHsAfQAsACIAdABlAHgAdAAtAHQAcgBhAG4AcwBmAG8AcgBtACIAOgB7AH0ALAAiAHQAcgBhAGMAawBpAG4AZwAiADoAewB9AH0AfQBdAH0ALAAiAGIAIgA6AHsAIgBBACIAOgBbADEANgBdAH0ALAAiAGQAIgA6ACIAQQAiACwAIgBlACIAOgAxADgAOAAuADUANQA4ADUAMwAwADMANQAwADgANAAyADAAMwAsACIAZgAiADoAMgA5AC4AOQAzADMAMwA0ACwAIgBoACIAOgAiAEEAIgB9ACwAewAiAEEAIgA6ADIAMgA3AC4AMQAzADYAOQAzADYAOQAwADcAOAA3ADkANQAsACIAQgAiADoAMgA2ADgALgAxADIAMAAwADAAMQA3ADEANAA2ADYAMQA2ADcALAAiAEQAIgA6ADEANQA5AC4AOAAwADQANgA4ADUANgA3ADEAMAAwADcAMgAsACIAQwAiADoAMgA0ACwAIgBUACIAOgB7ACIAQQBBAEEAQgBtAEcARQBHAEsAUAB4AEMAdwB6AGkAUABsAHMAYQBJAFYAUQAiADoAMQB9ACwAIgBBAD8AIgA6ACIASwAiACwAIgBhACIAOgB7ACIAQQAiADoAWwB7ACIAQQA/ACIAOgAiAEEAIgAsACIAQQAiADoAIgBQAHIAZQAtAHAAcgBvAGMAZQBzAHMAaQBuAGcAXABuACIAfQBdACwAIgBCACIAOgBbAHsAIgBBAD8AIgA6ACIAQQAiACwAIgBBACIAOgB7ACIAZgBvAG4AdAAtAGYAYQBtAGkAbAB5ACIAOgB7ACIAQgAiADoAIgBZAEEARgBkAEoAagBUAGsANQBVAFUALAAwACIAfQAsACIAZgBvAG4AdAAtAHMAaQB6AGUAIgA6AHsAIgBCACIAOgAiADIAMAAuADAAIgB9ACwAIgB0AGUAeAB0AC0AYQBsAGkAZwBuACIAOgB7ACIAQgAiADoAIgBjAGUAbgB0AGUAcgAiAH0AfQB9ACwAewAiAEEAPwAiADoAIgBCACIALAAiAEEAIgA6ADEANAB9ACwAewAiAEEAPwAiADoAIgBBACIALAAiAEEAIgA6AHsAIgBmAG8AbgB0AC0AawBlAHIAbgBpAG4AZwAiADoAewAiAEIAIgA6ACIAbgBvAHIAbQBhAGwAIgB9ACwAIgBmAG8AbgB0AC0AcwB0AHkAbABlACIAOgB7ACIAQgAiADoAIgBuAG8AcgBtAGEAbAAiAH0ALAAiAHQAcgBhAGMAawBpAG4AZwAiADoAewAiAEIAIgA6ACIAMAAuADAAIgB9ACwAIgBjAG8AbABvAHIAIgA6AHsAIgBCACIAOgAiACMAMAAwADAAMAAwADAAIgB9ACwAIgBmAG8AbgB0AC0AdwBlAGkAZwBoAHQAIgA6AHsAIgBCACIAOgAiAG4AbwByAG0AYQBsACIAfQAsACIAdABlAHgAdAAtAHQAcgBhAG4AcwBmAG8AcgBtACIAOgB7ACIAQgAiADoAIgBuAG8AbgBlACIAfQAsACIAcwBwAGEAYwBpAG4AZwAiADoAewAiAEIAIgA6ACIAMAAuADAAIgB9ACwAIgBsAGUAYQBkAGkAbgBnACIAOgB7ACIAQgAiADoAIgAxADQAMAAwAC4AMAAiAH0AfQB9ACwAewAiAEEAPwAiADoAIgBCACIALAAiAEEAIgA6ADEAfQAsAHsAIgBBAD8AIgA6ACIAQQAiACwAIgBBACIAOgB7ACIAZgBvAG4AdAAtAGYAYQBtAGkAbAB5ACIAOgB7AH0ALAAiAGYAbwBuAHQALQBzAGkAegBlACIAOgB7AH0ALAAiAHQAZQB4AHQALQBhAGwAaQBnAG4AIgA6AHsAfQAsACIAZgBvAG4AdAAtAGsAZQByAG4AaQBuAGcAIgA6AHsAfQAsACIAZgBvAG4AdAAtAHMAdAB5AGwAZQAiADoAewB9ACwAIgB0AHIAYQBjAGsAaQBuAGcAIgA6AHsAfQAsACIAYwBvAGwAbwByACIAOgB7AH0ALAAiAGYAbwBuAHQALQB3AGUAaQBnAGgAdAAiADoAewB9ACwAIgB0AGUAeAB0AC0AdAByAGEAbgBzAGYAbwByAG0AIgA6AHsAfQAsACIAcwBwAGEAYwBpAG4AZwAiADoAewB9ACwAIgBsAGUAYQBkAGkAbgBnACIAOgB7AH0AfQB9AF0AfQAsACIAYgAiADoAewAiAEEAIgA6AFsAMQA1AF0AfQAsACIAZAAiADoAIgBBACIALAAiAGUAIgA6ADEANQA5AC4AOAAwADQANgA4ADUANgA3ADEAMAAwADcAMQA4ACwAIgBmACIAOgAyADQALAAiAGgAIgA6ACIAQQAiAH0ALAB7ACIAQQAiADoAMgAyADcALgAxADMANgA5ADMANgA5ADAANwA4ADcAOQA1ACwAIgBCACIAOgA0ADUAOAAuADEANAAwADYAMQA5ADEANAA0ADcANwA5ADIALAAiAEQAIgA6ADEAMQA5AC4ANAA0ADQAOAA5ADAAMQAxADYAMAAxADUAMQAzACwAIgBDACIAOgAyADQALAAiAFQAIgA6AHsAIgBBAEEAQQBCAG0ARwBFAEcASwBQAHgAQwB3AHoAaQBQAGwAcwBhAEkAVgBRACIAOgAxAH0ALAAiAEEAPwAiADoAIgBLACIALAAiAGEAIgA6AHsAIgBBACIAOgBbAHsAIgBBAD8AIgA6ACIAQQAiACwAIgBBACIAOgAiAFYAYQBsAGkAZABhAHQAaQBvAG4AXABuACIAfQBdACwAIgBCACIAOgBbAHsAIgBBAD8AIgA6ACIAQQAiACwAIgBBACIAOgB7ACIAZgBvAG4AdAAtAGYAYQBtAGkAbAB5ACIAOgB7ACIAQgAiADoAIgBZAEEARgBkAEoAagBUAGsANQBVAFUALAAwACIAfQAsACIAZgBvAG4AdAAtAHMAaQB6AGUAIgA6AHsAIgBCACIAOgAiADIAMAAuADAAIgB9ACwAIgB0AGUAeAB0AC0AYQBsAGkAZwBuACIAOgB7ACIAQgAiADoAIgBjAGUAbgB0AGUAcgAiAH0AfQB9ACwAewAiAEEAPwAiADoAIgBCACIALAAiAEEAIgA6ADEAMAB9ACwAewAiAEEAPwAiADoAIgBBACIALAAiAEEAIgA6AHsAIgBzAHAAYQBjAGkAbgBnACIAOgB7ACIAQgAiADoAIgAwAC4AMAAiAH0ALAAiAGMAbwBsAG8AcgAiADoAewAiAEIAIgA6ACIAIwAwADAAMAAwADAAMAAiAH0ALAAiAGYAbwBuAHQALQBzAHQAeQBsAGUAIgA6AHsAIgBCACIAOgAiAG4AbwByAG0AYQBsACIAfQAsACIAZgBvAG4AdAAtAHcAZQBpAGcAaAB0ACIAOgB7ACIAQgAiADoAIgBuAG8AcgBtAGEAbAAiAH0ALAAiAGwAZQBhAGQAaQBuAGcAIgA6AHsAIgBCACIAOgAiADEANAAwADAALgAwACIAfQAsACIAdAByAGEAYwBrAGkAbgBnACIAOgB7ACIAQgAiADoAIgAwAC4AMAAiAH0ALAAiAHQAZQB4AHQALQB0AHIAYQBuAHMAZgBvAHIAbQAiADoAewAiAEIAIgA6ACIAbgBvAG4AZQAiAH0ALAAiAGYAbwBuAHQALQBrAGUAcgBuAGkAbgBnACIAOgB7ACIAQgAiADoAIgBuAG8AcgBtAGEAbAAiAH0AfQB9ACwAewAiAEEAPwAiADoAIgBCACIALAAiAEEAIgA6ADEAfQAsAHsAIgBBAD8AIgA6ACIAQQAiACwAIgBBACIAOgB7ACIAZgBvAG4AdAAtAGYAYQBtAGkAbAB5ACIAOgB7AH0ALAAiAGYAbwBuAHQALQBzAGkAegBlACIAOgB7AH0ALAAiAHQAZQB4AHQALQBhAGwAaQBnAG4AIgA6AHsAfQAsACIAcwBwAGEAYwBpAG4AZwAiADoAewB9ACwAIgBjAG8AbABvAHIAIgA6AHsAfQAsACIAZgBvAG4AdAAtAHMAdAB5AGwAZQAiADoAewB9ACwAIgBmAG8AbgB0AC0AdwBlAGkAZwBoAHQAIgA6AHsAfQAsACIAbABlAGEAZABpAG4AZwAiADoAewB9ACwAIgB0AHIAYQBjAGsAaQBuAGcAIgA6AHsAfQAsACIAdABlAHgAdAAtAHQAcgBhAG4AcwBmAG8AcgBtACIAOgB7AH0ALAAiAGYAbwBuAHQALQBrAGUAcgBuAGkAbgBnACIAOgB7AH0AfQB9AF0AfQAsACIAYgAiADoAewAiAEEAIgA6AFsAMQAxAF0AfQAsACIAZAAiADoAIgBBACIALAAiAGUAIgA6ADEAMQA5AC4ANAA0ADQAOAA5ADAAMQAxADYAMAAxADUAMQAsACIAZgAiADoAMgA0ACwAIgBoACIAOgAiAEEAIgB9ACwAewAiAEEAIgA6ADQAMgA2AC4ANQA3ADAAMAA1ADUAMgAwADEANwA2ADEANgA1ACwAIgBCACIAOgA3ADEANAAuADkAOAAyADIANwA5ADEANQA1ADkANgA5ACwAIgBEACIAOgAxADQAMAAuADUAOAAyADAANwA0ADcAMAA5ADMANwAwADEALAAiAEMAIgA6ADEAOAA0AC4AMQAwADEANgA4ADAAMgAzADIAOAA1ADUAMgA0ACwAIgBUACIAOgB7ACIAQQBBAEEAQgBtAEcARQBHAEsAUAB4AEMAdwB6AGkAUABsAHMAYQBJAFYAUQAiADoAMQB9ACwAIgBBAD8AIgA6ACIASgAiACwAIgBhACIAOgB7ACIARAAiADoANgA0ACwAIgBDACIAOgA2ADQAfQAsACIAYgAiADoAWwB7ACIAQQAiADoAIgBNADAAIAAwAEgANgA0AFYANgA0AEgAMAB6ACIALAAiAEIAIgA6AHsAIgBBACIAOgBmAGEAbABzAGUALAAiAEMAIgA6ACIAIwBmAGYAZgBmAGYAZgAiAH0ALAAiAEQAIgA6ADUAMQB9AF0ALAAiAGMAIgA6AHsAIgBBACIAOgB7ACIARAAiADoANgA0ACwAIgBDACIAOgA2ADQAfQAsACIAQgAiADoAMwA3AC4ANQAxADcAOQAyADkAMQAxADEANgAxADkANAA2ADYALAAiAEMAIgA6ADQAOQAuADEAMwAyADIANQAxADAANQAzADkANQAyADYANAAsACIARAAiADoAIgBBACIALAAiAEUAIgA6ACIAQQAiAH0ALAAiAGUAIgA6AHsAfQAsACIAZgAiADoAWwB7ACIAQQAiADoAewAiAEEAIgA6AFsAewAiAEEAPwAiADoAIgBBACIALAAiAEEAIgA6ACIAXABuACIAfQBdACwAIgBCACIAOgBbAHsAIgBBAD8AIgA6ACIAQQAiACwAIgBBACIAOgB7ACIAZgBvAG4AdAAtAHMAaQB6AGUAIgA6AHsAIgBCACIAOgAiADIANQAuADMAMwAzADUAIgB9ACwAIgBmAG8AbgB0AC0AawBlAHIAbgBpAG4AZwAiADoAewAiAEIAIgA6ACIAbgBvAHIAbQBhAGwAIgB9ACwAIgBmAG8AbgB0AC0AZgBhAG0AaQBsAHkAIgA6AHsAIgBCACIAOgAiAFkAQQBGAGQASgBqAFQAawA1AFUAVQAsADAAIgB9ACwAIgBmAG8AbgB0AC0AdwBlAGkAZwBoAHQAIgA6AHsAIgBCACIAOgAiAG4AbwByAG0AYQBsACIAfQAsACIAZgBvAG4AdAAtAHMAdAB5AGwAZQAiADoAewAiAEIAIgA6ACIAbgBvAHIAbQBhAGwAIgB9ACwAIgB0AGUAeAB0AC0AdAByAGEAbgBzAGYAbwByAG0AIgA6AHsAIgBCACIAOgAiAG4AbwBuAGUAIgB9ACwAIgBsAGUAYQBkAGkAbgBnACIAOgB7ACIAQgAiADoAIgAxADQAMAAwAC4AMAAiAH0ALAAiAHQAcgBhAGMAawBpAG4AZwAiADoAewAiAEIAIgA6ACIAMAAuADAAIgB9ACwAIgB0AGUAeAB0AC0AYQBsAGkAZwBuACIAOgB7ACIAQgAiADoAIgBjAGUAbgB0AGUAcgAiAH0ALAAiAGMAbwBsAG8AcgAiADoAewAiAEIAIgA6ACIAIwBmAGYAZgBmAGYAZgAiAH0AfQB9ACwAewAiAEEAPwAiADoAIgBCACIALAAiAEEAIgA6ADEAfQAsAHsAIgBBAD8AIgA6ACIAQQAiACwAIgBBACIAOgB7ACIAZgBvAG4AdAAtAHMAaQB6AGUAIgA6AHsAfQAsACIAZgBvAG4AdAAtAGsAZQByAG4AaQBuAGcAIgA6AHsAfQAsACIAZgBvAG4AdAAtAGYAYQBtAGkAbAB5ACIAOgB7AH0ALAAiAGYAbwBuAHQALQB3AGUAaQBnAGgAdAAiADoAewB9ACwAIgBmAG8AbgB0AC0AcwB0AHkAbABlACIAOgB7AH0ALAAiAHQAZQB4AHQALQB0AHIAYQBuAHMAZgBvAHIAbQAiADoAewB9ACwAIgBsAGUAYQBkAGkAbgBnACIAOgB7AH0ALAAiAHQAcgBhAGMAawBpAG4AZwAiADoAewB9ACwAIgB0AGUAeAB0AC0AYQBsAGkAZwBuACIAOgB7AH0ALAAiAGMAbwBsAG8AcgAiADoAewB9AH0AfQBdAH0ALAAiAEIAIgA6AHsAIgBBACIAOgBbADAAXQB9ACwAIgBEACIAOgB7ACIARAAiADoANgA0ACwAIgBDACIAOgA2ADQAfQAsACIARQAiADoAWwAyAC4AOQA2ADAANgA0ADMAMAAxADYAOAA3ADkANAA2ADMAXQAsACIARgAiADoAIgBCACIAfQBdACwAIgBoACIAOgB7ACIAQQA/ACIAOgAiAEgAIgAsACIAQQAiADoAMQA4ADQALgAxADAAMQA2ADgAMAAyADMAMgA4ADUANQAyADQAfQB9ACwAewAiAEEAIgA6ADQAOAA0AC4AMwAyADQAMwA1ADIAOQA5ADEANgAzADAANwA1ACwAIgBCACIAOgA3ADMANgAuADgANAA1ADkAOQA4ADgANwAyADgAMAAxADQALAAiAEQAIgA6ADEAMAAyAC4AMQAyADQANgA2ADcAOQAyADUANgAyADQAMgA4ACwAIgBDACIAOgAxADAAMgAuADEAMgA0ADYANgA3ADkAMgA1ADYAMgA0ADIAOAAsACIAVAAiADoAewAiAEEAQQBBAEIAbQBHAEUARwBLAFAAeABDAHcAegBpAFAAbABzAGEASQBWAFEAIgA6ADEAfQAsACIAQQA/ACIAOgAiAEkAIgAsACIAYQAiADoAewAiAEIAIgA6AHsAIgBBACIAOgB7ACIAQQAiADoAIgBNAEEARwB1AHYAYwBFAFEAaQA0AEUAIgAsACIAQgAiADoAMQB9ACwAIgBCACIAOgB7ACIARAAiADoAMQAwADIALgAxADIANAA2ADYANwA5ADIANQA2ADIANAAyADgALAAiAEMAIgA6ADEAMAAyAC4AMQAyADQANgA2ADcAOQAyADUANgAyADQAMgA4AH0AfQB9AH0ALAB7ACIAQQAiADoANAA0ADkALgAzADkANQA0ADMANQA5ADMAOQA1ADgAMAAyADQALAAiAEIAIgA6ADcAMwA1AC4ANgA0ADMANwAyADkAMwAxADkANAA3ADEAOAAsACIARAAiADoAMQAwADQALgA1ADIAOQAyADAANwAwADMAMgAyADgAMwAyADgALAAiAEMAIgA6ADIANAAuADAAOAA2ADQAMwA1ADgANAA0ADQAMAA1ADEANgA2ACwAIgBUACIAOgB7ACIAQQBBAEEAQgBtAEcARQBHAEsAUAB4AEMAdwB6AGkAUABsAHMAYQBJAFYAUQAiADoAMQB9ACwAIgBBAD8AIgA6ACIASwAiACwAIgBhACIAOgB7ACIAQQAiADoAWwB7ACIAQQA/ACIAOgAiAEEAIgAsACIAQQAiADoAIgBWAGEAbABpAGQAYQB0AGkAbwBuAFwAbgAiAH0AXQAsACIAQgAiADoAWwB7ACIAQQA/ACIAOgAiAEEAIgAsACIAQQAiADoAewAiAHQAZQB4AHQALQBhAGwAaQBnAG4AIgA6AHsAIgBCACIAOgAiAGMAZQBuAHQAZQByACIAfQAsACIAZgBvAG4AdAAtAHcAZQBpAGcAaAB0ACIAOgB7ACIAQgAiADoAIgBiAG8AbABkACIAfQAsACIAZgBvAG4AdAAtAGsAZQByAG4AaQBuAGcAIgA6AHsAIgBCACIAOgAiAG4AbwByAG0AYQBsACIAfQAsACIAZgBvAG4AdAAtAGYAYQBtAGkAbAB5ACIAOgB7ACIAQgAiADoAIgBZAEEARgBkAEoAdQBGAEMAbgBhAHcALAAwACIAfQAsACIAZgBvAG4AdAAtAHMAaQB6AGUAIgA6AHsAIgBCACIAOgAiADIANQAuADMAMwAzADQAIgB9AH0AfQAsAHsAIgBBAD8AIgA6ACIAQgAiACwAIgBBACIAOgAxADAAfQAsAHsAIgBBAD8AIgA6ACIAQQAiACwAIgBBACIAOgB7ACIAcwBwAGEAYwBpAG4AZwAiADoAewAiAEIAIgA6ACIAMAAuADAAIgB9ACwAIgBjAG8AbABvAHIAIgA6AHsAIgBCACIAOgAiACMAMAAwADAAMAAwADAAIgB9ACwAIgBsAGUAYQBkAGkAbgBnACIAOgB7ACIAQgAiADoAIgAxADQAMAAwAC4AMAAiAH0ALAAiAHQAZQB4AHQALQB0AHIAYQBuAHMAZgBvAHIAbQAiADoAewAiAEIAIgA6ACIAbgBvAG4AZQAiAH0ALAAiAHQAcgBhAGMAawBpAG4AZwAiADoAewAiAEIAIgA6ACIAMAAuADAAIgB9AH0AfQAsAHsAIgBBAD8AIgA6ACIAQgAiACwAIgBBACIAOgAxAH0ALAB7ACIAQQA/ACIAOgAiAEEAIgAsACIAQQAiADoAewAiAHQAZQB4AHQALQBhAGwAaQBnAG4AIgA6AHsAfQAsACIAZgBvAG4AdAAtAHcAZQBpAGcAaAB0ACIAOgB7AH0ALAAiAGYAbwBuAHQALQBrAGUAcgBuAGkAbgBnACIAOgB7AH0ALAAiAGYAbwBuAHQALQBmAGEAbQBpAGwAeQAiADoAewB9ACwAIgBmAG8AbgB0AC0AcwBpAHoAZQAiADoAewB9ACwAIgBzAHAAYQBjAGkAbgBnACIAOgB7AH0ALAAiAGMAbwBsAG8AcgAiADoAewB9ACwAIgBsAGUAYQBkAGkAbgBnACIAOgB7AH0ALAAiAHQAZQB4AHQALQB0AHIAYQBuAHMAZgBvAHIAbQAiADoAewB9ACwAIgB0AHIAYQBjAGsAaQBuAGcAIgA6AHsAfQB9AH0AXQB9ACwAIgBiACIAOgB7ACIAQQAiADoAWwAxADEAXQB9ACwAIgBkACIAOgAiAEEAIgAsACIAZQAiADoAMQAyADkALgA5ADAAMwAyADQANgAxADEAMQA0ADUANwAxACwAIgBmACIAOgAyADkALgA5ADMAMwAzADIAMAAwADAAMAAwADAAMAAwADAAMgAsACIAaAAiADoAIgBBACIAfQAsAHsAIgBBACIAOgAxADUAMQAuADkANQAzADQAMgA1ADQAMQA1ADkANgA3ADYAMgAsACIAQgAiADoAMgAwADUALgA1ADUAOAAwADAANwA2ADYAMAA0ADEAOQA2ADMALAAiAEQAIgA6ADUANAAuADgANgA0ADQANgAwADYAMwA3ADgAMAAwADIAMQA0ACwAIgBDACIAOgA0ACwAIgBFACIAOgAwAC4AMAAxADkAMAAzADYANAA3ADMAOQA2ADAAOQAzADgAMQA4ACwAIgBUACIAOgB7ACIAQQBBAEEAQgBtAEcARQBHAEsAUAB4AEMAdwB6AGkAUABsAHMAYQBJAFYAUQAiADoAMQB9ACwAIgBBAD8AIgA6ACIAVQAiACwAIgBhACIAOgA0ACwAIgBiACIAOgB7ACIAQwAiADoAewAiAEEAIgA6ADEANQAzAC4AOQA0ADQAMwAxADEAMAA4ADAAOQA2ADcAOQA2ACwAIgBCACIAOgAyADAANQAuADUANQA4ADAAMAA5ADEANwA0ADUAMwA0ADYANwB9AH0ALAAiAGMAIgA6AHsAIgBBACIAOgAiAEMAIgAsACIAQwAiADoAewAiAEEAIgA6ADEANQAzAC4AOQA2ADIANQAzADkANwA1ADAAOQA2ADcAMgA3ACwAIgBCACIAOgAyADYAMAAuADQAMgAyADQANgA2ADcAOAA0ADEAMAA0ADgAfQB9ACwAIgBkACIAOgAiACMAMQBmADQAMgA4ADYAIgAsACIAZgAiADoAdAByAHUAZQB9ACwAewAiAEEAIgA6ADEANQAxAC4AOQA2ADIANQAzADkANwA1ADAAOQA2ADcAMgA3ACwAIgBCACIAOgA1ADkANAAuADQANAAzADEAMQAxADEAOQA2ADEAOQAwADkALAAiAEQAIgA6ADYANAAuADMANAA3ADYAMwAzADcAMgAxADAAMwA5ADAANwAsACIAQwAiADoANAAsACIAVAAiADoAewAiAEEAQQBBAEIAbQBHAEUARwBLAFAAeABDAHcAegBpAFAAbABzAGEASQBWAFEAIgA6ADEAfQAsACIAQQA/ACIAOgAiAFUAIgAsACIAYQAiADoANAAsACIAYgAiADoAewAiAEMAIgA6AHsAIgBBACIAOgAxADUAMwAuADkANgAyADUAMwA5ADcANQAwADkANgA3ADIANwAsACIAQgAiADoANQA5ADQALgA0ADQAMwAxADEAMQAxADkANgAxADkAMAA5AH0AfQAsACIAYwAiADoAewAiAEEAIgA6ACIAQwAiACwAIgBDACIAOgB7ACIAQQAiADoAMQA1ADMALgA5ADYAMgA1ADMAOQA3ADUAMAA5ADYANwAyADcALAAiAEIAIgA6ADYANQA4AC4ANwA5ADAANwA0ADQAOQAxADcAMgAzAH0AfQAsACIAZAAiADoAIgAjADEAZgA0ADIAOAA2ACIALAAiAGYAIgA6AHQAcgB1AGUAfQAsAHsAIgBBACIAOgAxADUANAAuADQANwA2ADQANQAzADEAMQAxADUAOQAxADAANAAsACIAQgAiADoAOQAwADUALgA3ADgAOAA0ADcANAA0ADQAOQA5ADkANgA5ACwAIgBEACIAOgA1ADUALgAwADAAOQA2ADEANgAxADEAOQA2ADkANgAwADYALAAiAEMAIgA6ADQALAAiAEUAIgA6ADEALgAwADcAMQAzADMAMwAyADQAMAA1ADMAOQAzADIAOQA5ACwAIgBUACIAOgB7ACIAQQBBAEEAQgBtAEcARQBHAEsAUAB4AEMAdwB6AGkAUABsAHMAYQBJAFYAUQAiADoAMQB9ACwAIgBBAD8AIgA6ACIAVQAiACwAIgBhACIAOgA0ACwAIgBiACIAOgB7ACIAQwAiADoAewAiAEEAIgA6ADEANQA1AC4AOQA2ADIAMQA5ADAAMQAzADUAMAAxADMANwA3ACwAIgBCACIAOgA5ADAANQAuADcAOQAzADIAOAAyADUAMAA5ADgANAA0ADkAfQB9ACwAIgBjACIAOgB7ACIAQQAiADoAIgBDACIALAAiAEMAIgA6AHsAIgBBACIAOgAxADUANgAuADkAOQAwADcAMQA2ADAAOAA4ADEANgA4ADMALAAiAEIAIgA6ADkANgAwAC4ANwA5ADMAMgA4ADIANQAwADkAOAA0ADUAfQB9ACwAIgBkACIAOgAiACMAMQBmADQAMgA4ADYAIgAsACIAZgAiADoAdAByAHUAZQB9ACwAewAiAEEAIgA6ADgALgA1ADIANgA1ADEAMgA4ADIAOQAxADIAMQAyADAAMgBlAC0AMQA0ACwAIgBCACIAOgA2ADYAMAAuADcAOQAwADcANAA0ADkAMQA3ADIAMwAsACIARAAiADoAMgA0ADQALgA5ADYANQAxADQAMwAxADgANgA4ADQANwAyADYALAAiAEMAIgA6ADMAMAA3AC4AOAA4ADgANgAyADIAMQA2ADEAOQAzADUANwA2ACwAIgBUACIAOgB7ACIAQQBBAEEAQgBtAEcARQBHAEsAUAB4AEMAdwB6AGkAUABsAHMAYQBJAFYAUQAiADoAMQB9ACwAIgBBAD8AIgA6ACIASgAiACwAIgBhACIAOgB7ACIARAAiADoANgA0ACwAIgBDACIAOgA2ADQAfQAsACIAYgAiADoAWwB7ACIAQQAiADoAIgBNADAAIAAwAEgANgA0AFYANgA0AEgAMAB6ACIALAAiAEIAIgA6AHsAIgBBACIAOgBmAGEAbABzAGUALAAiAEMAIgA6ACIAIwBmAGYAZgBmAGYAZgAiAH0ALAAiAEQAIgA6ADUAMQB9AF0ALAAiAGMAIgA6AHsAIgBBACIAOgB7ACIARAAiADoANgA0ACwAIgBDACIAOgA2ADQAfQAsACIAQgAiADoANQA0AC4ANgAxADYANQA3ADIANwA5ADQAMAA4ADgANQAyADYALAAiAEMAIgA6ADYAOAAuADYANAA1ADcANwAxADkAMAA4ADYANgA5ADkAOQAsACIARAAiADoAIgBBACIALAAiAEUAIgA6ACIAQQAiAH0ALAAiAGUAIgA6AHsAfQAsACIAZgAiADoAWwB7ACIAQQAiADoAewAiAEEAIgA6AFsAewAiAEEAPwAiADoAIgBBACIALAAiAEEAIgA6ACIAXABuACIAfQBdACwAIgBCACIAOgBbAHsAIgBBAD8AIgA6ACIAQQAiACwAIgBBACIAOgB7ACIAZgBvAG4AdAAtAHMAaQB6AGUAIgA6AHsAIgBCACIAOgAiADIANQAuADMAMwAzADMAIgB9ACwAIgBmAG8AbgB0AC0AawBlAHIAbgBpAG4AZwAiADoAewAiAEIAIgA6ACIAbgBvAHIAbQBhAGwAIgB9ACwAIgBmAG8AbgB0AC0AZgBhAG0AaQBsAHkAIgA6AHsAIgBCACIAOgAiAFkAQQBGAGQASgBqAFQAawA1AFUAVQAsADAAIgB9ACwAIgBmAG8AbgB0AC0AdwBlAGkAZwBoAHQAIgA6AHsAIgBCACIAOgAiAG4AbwByAG0AYQBsACIAfQAsACIAZgBvAG4AdAAtAHMAdAB5AGwAZQAiADoAewAiAEIAIgA6ACIAbgBvAHIAbQBhAGwAIgB9ACwAIgB0AGUAeAB0AC0AdAByAGEAbgBzAGYAbwByAG0AIgA6AHsAIgBCACIAOgAiAG4AbwBuAGUAIgB9ACwAIgBsAGUAYQBkAGkAbgBnACIAOgB7ACIAQgAiADoAIgAxADQAMAAwAC4AMAAiAH0ALAAiAHQAcgBhAGMAawBpAG4AZwAiADoAewAiAEIAIgA6ACIAMAAuADAAIgB9ACwAIgB0AGUAeAB0AC0AYQBsAGkAZwBuACIAOgB7ACIAQgAiADoAIgBjAGUAbgB0AGUAcgAiAH0ALAAiAGMAbwBsAG8AcgAiADoAewAiAEIAIgA6ACIAIwBmAGYAZgBmAGYAZgAiAH0AfQB9ACwAewAiAEEAPwAiADoAIgBCACIALAAiAEEAIgA6ADEAfQAsAHsAIgBBAD8AIgA6ACIAQQAiACwAIgBBACIAOgB7ACIAZgBvAG4AdAAtAHMAaQB6AGUAIgA6AHsAfQAsACIAZgBvAG4AdAAtAGsAZQByAG4AaQBuAGcAIgA6AHsAfQAsACIAZgBvAG4AdAAtAGYAYQBtAGkAbAB5ACIAOgB7AH0ALAAiAGYAbwBuAHQALQB3AGUAaQBnAGgAdAAiADoAewB9ACwAIgBmAG8AbgB0AC0AcwB0AHkAbABlACIAOgB7AH0ALAAiAHQAZQB4AHQALQB0AHIAYQBuAHMAZgBvAHIAbQAiADoAewB9ACwAIgBsAGUAYQBkAGkAbgBnACIAOgB7AH0ALAAiAHQAcgBhAGMAawBpAG4AZwAiADoAewB9ACwAIgB0AGUAeAB0AC0AYQBsAGkAZwBuACIAOgB7AH0ALAAiAGMAbwBsAG8AcgAiADoAewB9AH0AfQBdAH0ALAAiAEIAIgA6AHsAIgBBACIAOgBbADAAXQB9ACwAIgBEACIAOgB7ACIARAAiADoANgA0ACwAIgBDACIAOgA2ADQAfQAsACIARQAiADoAWwAzAC4ANQA0ADMAOAA0ADUANgA4ADMAMgAwADYANwA3ADUAMwBdACwAIgBGACIAOgAiAEIAIgB9AF0ALAAiAGgAIgA6AHsAIgBBAD8AIgA6ACIASAAiACwAIgBBACIAOgAzADAANwAuADgAOAA4ADYAMgAyADEANgAxADkAMwA1ADcANgB9AH0ALAB7ACIAQQAiADoANwA1AC4AMgAyADEAMQA2ADYANAAwADMANQA3ADMAMQA2ACwAIgBCACIAOgA3ADAANAAuADgANgA1ADQANQAwADcANwAzADEAOAAxADQALAAiAEQAIgA6ADEANgA2AC4AOAAwADQAMQA2ADMAMQAzADMANQA3ADkAMgA3ACwAIgBDACIAOgAxADYANgAuADgAMAA0ADEANgAzADEAMwAzADUANwA5ADIANwAsACIAVAAiADoAewAiAEEAQQBBAEIAbQBHAEUARwBLAFAAeABDAHcAegBpAFAAbABzAGEASQBWAFEAIgA6ADEAfQAsACIAQQA/ACIAOgAiAEkAIgAsACIAYQAiADoAewAiAEIAIgA6AHsAIgBBACIAOgB7ACIAQQAiADoAIgBNAEEARwB1AHYAVQBhADYAMQBvAGMAIgAsACIAQgAiADoAMQB9ACwAIgBCACIAOgB7ACIARAAiADoAMQA2ADYALgA4ADAANAAxADYAMwAxADMAMwA1ADcAOQAyADcALAAiAEMAIgA6ADEANgA2AC4AOAAwADQAMQA2ADMAMQAzADMANQA3ADkAMgA3AH0AfQB9AH0ALAB7ACIAQQAiADoAMQA3AC4ANwAyADMAMwA0ADUAOQA1ADgAMwA3ADAAMAA2ACwAIgBCACIAOgA2ADYAOQAuADEANQAwADQANwA0ADcANgAxADYAOQA4ACwAIgBEACIAOgAyADIAMQAuADUAMgAzADUAOAA0ADEANgAxADEAOAAyADkAMgAsACIAQwAiADoANgA0AC4AOQAyADIAOAA0ADAAMAAwADAAMAAwADAAMAAxACwAIgBUACIAOgB7ACIAQQBBAEEAQgBtAEcARQBHAEsAUAB4AEMAdwB6AGkAUABsAHMAYQBJAFYAUQAiADoAMQB9ACwAIgBBAD8AIgA6ACIASwAiACwAIgBhACIAOgB7ACIAQQAiADoAWwB7ACIAQQA/ACIAOgAiAEEAIgAsACIAQQAiADoAIgBNAGEAYwBoAGkAbgBlACAATABlAGEAcgBuAGkAbgBnAFwAbgAgAE0AbwBkAGUAbAAgAGYAbwByACAAZABpAGEAYgBlAHQAZQBzACAAXABuACIAfQBdACwAIgBCACIAOgBbAHsAIgBBAD8AIgA6ACIAQQAiACwAIgBBACIAOgB7ACIAdABlAHgAdAAtAGEAbABpAGcAbgAiADoAewAiAEIAIgA6ACIAYwBlAG4AdABlAHIAIgB9ACwAIgBmAG8AbgB0AC0AdwBlAGkAZwBoAHQAIgA6AHsAIgBCACIAOgAiAGIAbwBsAGQAIgB9ACwAIgBmAG8AbgB0AC0AawBlAHIAbgBpAG4AZwAiADoAewAiAEIAIgA6ACIAbgBvAHIAbQBhAGwAIgB9ACwAIgBmAG8AbgB0AC0AZgBhAG0AaQBsAHkAIgA6AHsAIgBCACIAOgAiAFkAQQBGAGQASgB1AEYAQwBuAGEAdwAsADAAIgB9ACwAIgBmAG8AbgB0AC0AcwBpAHoAZQAiADoAewAiAEIAIgA6ACIAMgA1AC4AMwA4ADUAOAAiAH0AfQB9ACwAewAiAEEAPwAiADoAIgBCACIALAAiAEEAIgA6ADMANwB9ACwAewAiAEEAPwAiADoAIgBBACIALAAiAEEAIgA6AHsAIgBzAHAAYQBjAGkAbgBnACIAOgB7ACIAQgAiADoAIgAwAC4AMAAiAH0ALAAiAGMAbwBsAG8AcgAiADoAewAiAEIAIgA6ACIAIwAwADAAMAAwADAAMAAiAH0ALAAiAGwAZQBhAGQAaQBuAGcAIgA6AHsAIgBCACIAOgAiADEANAAwADAALgAwACIAfQAsACIAdABlAHgAdAAtAHQAcgBhAG4AcwBmAG8AcgBtACIAOgB7ACIAQgAiADoAIgBuAG8AbgBlACIAfQAsACIAdAByAGEAYwBrAGkAbgBnACIAOgB7ACIAQgAiADoAIgAwAC4AMAAiAH0AfQB9ACwAewAiAEEAPwAiADoAIgBCACIALAAiAEEAIgA6ADEAfQAsAHsAIgBBAD8AIgA6ACIAQQAiACwAIgBBACIAOgB7ACIAdABlAHgAdAAtAGEAbABpAGcAbgAiADoAewB9ACwAIgBmAG8AbgB0AC0AdwBlAGkAZwBoAHQAIgA6AHsAfQAsACIAZgBvAG4AdAAtAGsAZQByAG4AaQBuAGcAIgA6AHsAfQAsACIAZgBvAG4AdAAtAGYAYQBtAGkAbAB5ACIAOgB7AH0ALAAiAGYAbwBuAHQALQBzAGkAegBlACIAOgB7AH0ALAAiAHMAcABhAGMAaQBuAGcAIgA6AHsAfQAsACIAYwBvAGwAbwByACIAOgB7AH0ALAAiAGwAZQBhAGQAaQBuAGcAIgA6AHsAfQAsACIAdABlAHgAdAAtAHQAcgBhAG4AcwBmAG8AcgBtACIAOgB7AH0ALAAiAHQAcgBhAGMAawBpAG4AZwAiADoAewB9AH0AfQBdAH0ALAAiAGIAIgA6AHsAIgBBACIAOgBbADEANwAsADgAXQB9ACwAIgBkACIAOgAiAEEAIgAsACIAZQAiADoAMgAyADEALgA1ADIAMwA1ADgANAAxADYAMQAxADgAMgA4ADcALAAiAGYAIgA6ADYANAAuADkAMgAyADgANAAsACIAZwAiADoAZgBhAGwAcwBlACwAIgBoACIAOgAiAEEAIgB9ACwAewAiAEEAIgA6ADIAMwA3AC4AOQAzADIANwAxADgAMwA2ADUAOQAyADYANQAyACwAIgBCACIAOgA2ADgAMwAuADUAOQA4ADAAOQAwADIANgA5ADcAMAAwADcALAAiAEQAIgA6ADIAMQAyAC4ANgAxADYAOQA3ADEAOAA4ADcAMwA5ADcANgAsACIAQwAiADoANQAyACwAIgBUACIAOgB7ACIAQQBBAEEAQgBtAEcARQBHAEsAUAB4AEMAdwB6AGkAUABsAHMAYQBJAFYAUQAiADoAMQB9ACwAIgBBAD8AIgA6ACIASwAiACwAIgBhACIAOgB7ACIAQQAiADoAWwB7ACIAQQA/ACIAOgAiAEEAIgAsACIAQQAiADoAIgBSAEYALAAgAEEAZABhACAAQgBvAG8AcwB0ACwAIABTAE0ATwBUAEUALAAgAEQATgBOACwAIABoAHkAYgByAGkAZAAgACIAfQAsAHsAIgBBAD8AIgA6ACIAQgAiACwAIgBBACIAOgA0ADQAfQAsAHsAIgBBAD8AIgA6ACIAQQAiACwAIgBBACIAOgAiAFwAbgAiAH0AXQAsACIAQgAiADoAWwB7ACIAQQA/ACIAOgAiAEEAIgAsACIAQQAiADoAewAiAGYAbwBuAHQALQBmAGEAbQBpAGwAeQAiADoAewAiAEIAIgA6ACIAWQBBAEYAZABKAGoAVABrADUAVQBVACwAMAAiAH0ALAAiAGYAbwBuAHQALQBzAGkAegBlACIAOgB7ACIAQgAiADoAIgAyADAALgAwACIAfQAsACIAdABlAHgAdAAtAGEAbABpAGcAbgAiADoAewAiAEIAIgA6ACIAYwBlAG4AdABlAHIAIgB9AH0AfQAsAHsAIgBBAD8AIgA6ACIAQgAiACwAIgBBACIAOgAzADgAfQAsAHsAIgBBAD8AIgA6ACIAQQAiACwAIgBBACIAOgB7ACIAZgBvAG4AdAAtAGsAZQByAG4AaQBuAGcAIgA6AHsAIgBCACIAOgAiAG4AbwByAG0AYQBsACIAfQB9AH0ALAB7ACIAQQA/ACIAOgAiAEIAIgAsACIAQQAiADoANAAwAH0ALAB7ACIAQQA/ACIAOgAiAEEAIgAsACIAQQAiADoAewAiAGYAbwBuAHQALQBzAHQAeQBsAGUAIgA6AHsAIgBCACIAOgAiAG4AbwByAG0AYQBsACIAfQAsACIAdAByAGEAYwBrAGkAbgBnACIAOgB7ACIAQgAiADoAIgAwAC4AMAAiAH0ALAAiAGMAbwBsAG8AcgAiADoAewAiAEIAIgA6ACIAIwAwADAAMAAwADAAMAAiAH0ALAAiAGYAbwBuAHQALQB3AGUAaQBnAGgAdAAiADoAewAiAEIAIgA6ACIAbgBvAHIAbQBhAGwAIgB9ACwAIgB0AGUAeAB0AC0AdAByAGEAbgBzAGYAbwByAG0AIgA6AHsAIgBCACIAOgAiAG4AbwBuAGUAIgB9ACwAIgBzAHAAYQBjAGkAbgBnACIAOgB7ACIAQgAiADoAIgAwAC4AMAAiAH0ALAAiAGwAZQBhAGQAaQBuAGcAIgA6AHsAIgBCACIAOgAiADEANAAwADAALgAwACIAfQB9AH0ALAB7ACIAQQA/ACIAOgAiAEIAIgAsACIAQQAiADoAMQB9ACwAewAiAEEAPwAiADoAIgBBACIALAAiAEEAIgA6AHsAIgBmAG8AbgB0AC0AZgBhAG0AaQBsAHkAIgA6AHsAfQAsACIAZgBvAG4AdAAtAHMAaQB6AGUAIgA6AHsAfQAsACIAdABlAHgAdAAtAGEAbABpAGcAbgAiADoAewB9ACwAIgBmAG8AbgB0AC0AawBlAHIAbgBpAG4AZwAiADoAewB9ACwAIgBmAG8AbgB0AC0AcwB0AHkAbABlACIAOgB7AH0ALAAiAHQAcgBhAGMAawBpAG4AZwAiADoAewB9ACwAIgBjAG8AbABvAHIAIgA6AHsAfQAsACIAZgBvAG4AdAAtAHcAZQBpAGcAaAB0ACIAOgB7AH0ALAAiAHQAZQB4AHQALQB0AHIAYQBuAHMAZgBvAHIAbQAiADoAewB9ACwAIgBzAHAAYQBjAGkAbgBnACIAOgB7AH0ALAAiAGwAZQBhAGQAaQBuAGcAIgA6AHsAfQB9AH0AXQB9ACwAIgBiACIAOgB7ACIAQQAiADoAWwAxADUALAAyADAAXQB9ACwAIgBkACIAOgAiAEEAIgAsACIAZwAiADoAZgBhAGwAcwBlACwAIgBoACIAOgAiAEEAIgB9ACwAewAiAEEAIgA6ADMANgA0AC4ANQA0ADYANwAwADIAMwA1ADYAOAA3ADIAOAA2ACwAIgBCACIAOgA3ADIANQAuADIANAA5ADkANgAzADYANgA1ADcANgA1ADEALAAiAEQAIgA6ADEAMgAwAC4AMAA0ADYANwAwADUANgA4ADkANwA3ADcANAA3ACwAIgBDACIAOgA0ACwAIgBFACIAOgA5ADAALAAiAFQAIgA6AHsAIgBBAEEAQQBCAG0ARwBFAEcASwBQAHgAQwB3AHoAaQBQAGwAcwBhAEkAVgBRACIAOgAxAH0ALAAiAEEAPwAiADoAIgBVACIALAAiAGEAIgA6ADQALAAiAGIAIgA6AHsAIgBDACIAOgB7ACIAQQAiADoAMwAwADYALgA1ADIAMwAzADQAOQA1ADEAMQA5ADgANAAxACwAIgBCACIAOgA3ADgANQAuADIANwAzADMAMQA2ADUAMQAwADYANQAzADkAfQB9ACwAIgBjACIAOgB7ACIAQQAiADoAIgBDACIALAAiAEIAIgA6AHsAIgBBACIAOgAiAFIAagBkAGkAZwBQADQAUwBmAGQAdABMAG4AYwBZADAAQQAtADQAIgAsACIAQwAiADoAMAAuADUALAAiAEQAIgA6ACIAQQAiAH0ALAAiAEMAIgA6AHsAIgBBACIAOgA0ADIANgAuADUANwAwADAANQA1ADIAMAAxADcANgAxADYALAAiAEIAIgA6ADcAOAA1AC4AMgA3ADMAMwAxADYANQAxADAANgA1ADMAOQB9AH0ALAAiAGQAIgA6ACIAIwAxAGYANAAyADgANgAiACwAIgBmACIAOgB0AHIAdQBlAH0ALAB7ACIAQQAiADoANAA4AC4ANQA3ADAAMQAyADcAOAAzADIANgA4ADMANQAxACwAIgBCACIAOgA5ADYAMgAuADgAMwAwADYANwA2ADkAMQA1ADYAMQAyADkALAAiAEQAIgA6ADEAOQAxAC4ANQA2ADQANAAyADcAOAAwADkANgA4ADMANAAsACIAQwAiADoAMgAxADAALgA3ADQAOAAzADYANgA0ADkANgA1ADYAOAA5ACwAIgBUACIAOgB7ACIAQQBBAEEAQgBtAEcARQBHAEsAUAB4AEMAdwB6AGkAUABsAHMAYQBJAFYAUQAiADoAMQB9ACwAIgBBAD8AIgA6ACIASgAiACwAIgBhACIAOgB7ACIARAAiADoANgA0ACwAIgBDACIAOgA2ADQAfQAsACIAYgAiADoAWwB7ACIAQQAiADoAIgBNADAAIAAwAEgANgA0AFYANgA0AEgAMAB6ACIALAAiAEIAIgA6AHsAIgBBACIAOgBmAGEAbABzAGUALAAiAEMAIgA6ACIAIwBmAGYAZgBmAGYAZgAiAH0ALAAiAEQAIgA6ADUAMQB9AF0ALAAiAGMAIgA6AHsAIgBBACIAOgB7ACIARAAiADoANgA0ACwAIgBDACIAOgA2ADQAfQAsACIAQgAiADoANAAwAC4AMAAyADIANgAwADQAOQAxADkAMwA1ADEAOAA5ACwAIgBDACIAOgA0ADQALgAwADMAMAA2ADAAOQA5ADkANAA0ADEAMgA0ADYALAAiAEQAIgA6ACIAQQAiACwAIgBFACIAOgAiAEEAIgB9ACwAIgBlACIAOgB7AH0ALAAiAGYAIgA6AFsAewAiAEEAIgA6AHsAIgBBACIAOgBbAHsAIgBBAD8AIgA6ACIAQQAiACwAIgBBACIAOgAiAFwAbgAiAH0AXQAsACIAQgAiADoAWwB7ACIAQQA/ACIAOgAiAEEAIgAsACIAQQAiADoAewAiAGYAbwBuAHQALQBzAGkAegBlACIAOgB7ACIAQgAiADoAIgAyADUALgAzADMAMwAzACIAfQAsACIAZgBvAG4AdAAtAGsAZQByAG4AaQBuAGcAIgA6AHsAIgBCACIAOgAiAG4AbwByAG0AYQBsACIAfQAsACIAZgBvAG4AdAAtAGYAYQBtAGkAbAB5ACIAOgB7ACIAQgAiADoAIgBZAEEARgBkAEoAagBUAGsANQBVAFUALAAwACIAfQAsACIAZgBvAG4AdAAtAHcAZQBpAGcAaAB0ACIAOgB7ACIAQgAiADoAIgBuAG8AcgBtAGEAbAAiAH0ALAAiAGYAbwBuAHQALQBzAHQAeQBsAGUAIgA6AHsAIgBCACIAOgAiAG4AbwByAG0AYQBsACIAfQAsACIAdABlAHgAdAAtAHQAcgBhAG4AcwBmAG8AcgBtACIAOgB7ACIAQgAiADoAIgBuAG8AbgBlACIAfQAsACIAbABlAGEAZABpAG4AZwAiADoAewAiAEIAIgA6ACIAMQA0ADAAMAAuADAAIgB9ACwAIgB0AHIAYQBjAGsAaQBuAGcAIgA6AHsAIgBCACIAOgAiADAALgAwACIAfQAsACIAdABlAHgAdAAtAGEAbABpAGcAbgAiADoAewAiAEIAIgA6ACIAYwBlAG4AdABlAHIAIgB9ACwAIgBjAG8AbABvAHIAIgA6AHsAIgBCACIAOgAiACMAZgBmAGYAZgBmAGYAIgB9AH0AfQAsAHsAIgBBAD8AIgA6ACIAQgAiACwAIgBBACIAOgAxAH0ALAB7ACIAQQA/ACIAOgAiAEEAIgAsACIAQQAiADoAewAiAGYAbwBuAHQALQBzAGkAegBlACIAOgB7AH0ALAAiAGYAbwBuAHQALQBrAGUAcgBuAGkAbgBnACIAOgB7AH0ALAAiAGYAbwBuAHQALQBmAGEAbQBpAGwAeQAiADoAewB9ACwAIgBmAG8AbgB0AC0AdwBlAGkAZwBoAHQAIgA6AHsAfQAsACIAZgBvAG4AdAAtAHMAdAB5AGwAZQAiADoAewB9ACwAIgB0AGUAeAB0AC0AdAByAGEAbgBzAGYAbwByAG0AIgA6AHsAfQAsACIAbABlAGEAZABpAG4AZwAiADoAewB9ACwAIgB0AHIAYQBjAGsAaQBuAGcAIgA6AHsAfQAsACIAdABlAHgAdAAtAGEAbABpAGcAbgAiADoAewB9ACwAIgBjAG8AbABvAHIAIgA6AHsAfQB9AH0AXQB9ACwAIgBCACIAOgB7ACIAQQAiADoAWwAwAF0AfQAsACIARAAiADoAewAiAEQAIgA6ADYANAAsACIAQwAiADoANgA0AH0ALAAiAEUAIgA6AFsAMwAuADcAOAAxADgANQAxADQAOAA2ADIANwA5ADAAMgA2ADUAXQAsACIARgAiADoAIgBCACIAfQBdACwAIgBoACIAOgB7ACIAQQA/ACIAOgAiAEgAIgAsACIAQQAiADoAMgAxADAALgA3ADQAOAAzADYANgA0ADkANgA1ADYAOAA5AH0AfQAsAHsAIgBBACIAOgA5ADMALgAyADEAMAA3ADkAMQA4ADIAMQAwADMAMAAwADkALAAiAEIAIgA6ADkAOAAzAC4ANgA4ADgANQAzADIAMQA2ADcANQA0ADAANAAsACIARAAiADoAMQA0ADkALgA4ADIAMwAyADkAMAA5ADEAOAA5ADEANQA0ADYALAAiAEMAIgA6ADEANQA3AC4AMwA3ADcANAAwADYANAAyADcANAAzADIAMQA2ACwAIgBUACIAOgB7ACIAQQBBAEEAQgBtAEcARQBHAEsAUAB4AEMAdwB6AGkAUABsAHMAYQBJAFYAUQAiADoAMQB9ACwAIgBBAD8AIgA6ACIASQAiACwAIgBhACIAOgB7ACIAQgAiADoAewAiAEEAIgA6AHsAIgBBACIAOgAiAE0AQQBHAHUAdgBiAFYAXwB1AHYASQAiACwAIgBCACIAOgAxAH0ALAAiAEkAIgA6AHsAIgBBACIAOgAiAE0AQQBHAHUAdgBjAHEAWQBKAEMAWQAiACwAIgBCACIAOgAxAH0ALAAiAEIAIgA6AHsAIgBBACIAOgAtADEANgAuADgAOAA5ADcANgAwADMAMQAzADkANwAyADEANAA3ACwAIgBCACIAOgAtADEAOQAuADkANAAwADYAMgA3ADEAMgA2ADAAOAAzADIANAAzACwAIgBEACIAOgAxADgAOAAuADYAMgA3ADUAMAAwADgAMAAzADUAMAA1ADYANQAsACIAQwAiADoAMQA4ADkALgAxADUAMQA0ADYANgAwADgAMwA1ADEANQA0ADMAfQB9AH0AfQAsAHsAIgBBACIAOgA1ADkALgA2ADQAMAA3ADQAMAA2ADQAOAA1ADEAMwAxADkANAAsACIAQgAiADoAOQA2ADgALgA5ADkANwA0ADQANAA1ADQANQAxADQAMQA1ACwAIgBEACIAOgAxADcANAAuADUAOAAxADAAOAAwADQAMQAwADIAMgAzADIALAAiAEMAIgA6ADIAOQAuADkAMwAzADMANgAwADAAMAAwADAAMAAwADAAMAA4ACwAIgBUACIAOgB7ACIAQQBBAEEAQgBtAEcARQBHAEsAUAB4AEMAdwB6AGkAUABsAHMAYQBJAFYAUQAiADoAMQB9ACwAIgBBAD8AIgA6ACIASwAiACwAIgBhACIAOgB7ACIAQQAiADoAWwB7ACIAQQA/ACIAOgAiAEEAIgAsACIAQQAiADoAIgBQAHIAZQBkAGkAYwB0AGkAbwBuAFwAbgAiAH0AXQAsACIAQgAiADoAWwB7ACIAQQA/ACIAOgAiAEEAIgAsACIAQQAiADoAewAiAGYAbwBuAHQALQB3AGUAaQBnAGgAdAAiADoAewAiAEIAIgA6ACIAYgBvAGwAZAAiAH0ALAAiAGYAbwBuAHQALQBzAGkAegBlACIAOgB7ACIAQgAiADoAIgAyADUALgAzADMAMwAyACIAfQAsACIAZgBvAG4AdAAtAGYAYQBtAGkAbAB5ACIAOgB7ACIAQgAiADoAIgBZAEEARgBkAEoAagBUAGsANQBVAFUALAAwACIAfQAsACIAdABlAHgAdAAtAGEAbABpAGcAbgAiADoAewAiAEIAIgA6ACIAYwBlAG4AdABlAHIAIgB9ACwAIgBmAG8AbgB0AC0AawBlAHIAbgBpAG4AZwAiADoAewAiAEIAIgA6ACIAbgBvAHIAbQBhAGwAIgB9AH0AfQAsAHsAIgBBAD8AIgA6ACIAQgAiACwAIgBBACIAOgAxADAAfQAsAHsAIgBBAD8AIgA6ACIAQQAiACwAIgBBACIAOgB7ACIAZgBvAG4AdAAtAHMAdAB5AGwAZQAiADoAewAiAEIAIgA6ACIAbgBvAHIAbQBhAGwAIgB9ACwAIgB0AHIAYQBjAGsAaQBuAGcAIgA6AHsAIgBCACIAOgAiADAALgAwACIAfQAsACIAYwBvAGwAbwByACIAOgB7ACIAQgAiADoAIgAjADAAMAAwADAAMAAwACIAfQAsACIAdABlAHgAdAAtAHQAcgBhAG4AcwBmAG8AcgBtACIAOgB7ACIAQgAiADoAIgBuAG8AbgBlACIAfQAsACIAcwBwAGEAYwBpAG4AZwAiADoAewAiAEIAIgA6ACIAMAAuADAAIgB9ACwAIgBsAGUAYQBkAGkAbgBnACIAOgB7ACIAQgAiADoAIgAxADQAMAAwAC4AMAAiAH0AfQB9ACwAewAiAEEAPwAiADoAIgBCACIALAAiAEEAIgA6ADEAfQAsAHsAIgBBAD8AIgA6ACIAQQAiACwAIgBBACIAOgB7ACIAZgBvAG4AdAAtAHcAZQBpAGcAaAB0ACIAOgB7AH0ALAAiAGYAbwBuAHQALQBzAGkAegBlACIAOgB7AH0ALAAiAGYAbwBuAHQALQBmAGEAbQBpAGwAeQAiADoAewB9ACwAIgB0AGUAeAB0AC0AYQBsAGkAZwBuACIAOgB7AH0ALAAiAGYAbwBuAHQALQBrAGUAcgBuAGkAbgBnACIAOgB7AH0ALAAiAGYAbwBuAHQALQBzAHQAeQBsAGUAIgA6AHsAfQAsACIAdAByAGEAYwBrAGkAbgBnACIAOgB7AH0ALAAiAGMAbwBsAG8AcgAiADoAewB9ACwAIgB0AGUAeAB0AC0AdAByAGEAbgBzAGYAbwByAG0AIgA6AHsAfQAsACIAcwBwAGEAYwBpAG4AZwAiADoAewB9ACwAIgBsAGUAYQBkAGkAbgBnACIAOgB7AH0AfQB9AF0AfQAsACIAYgAiADoAewAiAEEAIgA6AFsAMQAxAF0AfQAsACIAZAAiADoAIgBBACIALAAiAGUAIgA6ADEANwA0AC4ANQA4ADEAMAA4ADAANAAxADAAMgAyADMAMgAyACwAIgBmACIAOgAyADkALgA5ADMAMwAzADYALAAiAGgAIgA6ACIAQQAiAH0ALAB7ACIAQQAiADoAMgA2ADgALgAwADQANAAzADIANQA3ADMANgA2ADUAMwA2ACwAIgBCACIAOgA0ADIANgAuADQAMwAyADcAOAA4ADkAOQAwADEANAA3ADgANgAsACIARAAiADoAMgA4ADMALgA0ADcANgA2ADAANAA1ADYAMAA5ADUANQA4ACwAIgBDACIAOgAyADUAMgAuADUANwA2ADUANgA5ADUAOAAxADUAMwA1ADUAOAAsACIAVAAiADoAewAiAEEAQQBBAEIAbQBHAEUARwBLAFAAeABDAHcAegBpAFAAbABzAGEASQBWAFEAIgA6ADEAfQAsACIAQQA/ACIAOgAiAFUAIgAsACIAYQAiADoANAAsACIAYgAiADoAewAiAEIAIgA6AHsAIgBBACIAOgAiAFIAagBkAGkAZwBQADQAUwBmAGQAdABMAG4AYwBZADAAQQAtADQAIgAsACIAQgAiADoAMAAuADUALAAiAEQAIgA6ACIAQQAiAH0ALAAiAEMAIgA6AHsAIgBBACIAOgA1ADEAOAAuADYAMgAwADgAOQA1ADMAMQA4ADEAOAA5ADIALAAiAEIAIgA6ADcAMAA5AC4AOQAwADkAMwA5ADMANQA1ADEAMQAwADMANwB9AH0ALAAiAGMAIgA6AHsAIgBBACIAOgAiAEMAIgAsACIAQwAiADoAewAiAEEAIgA6ADIANgA4AC4AMAA0ADQAMwAyADUANwAzADYANgA1ADMANQA1ACwAIgBCACIAOgA0ADIAOAAuADQAMwAyADcAOAA4ADkAOQAwADEANAA3ADgANgB9AH0ALAAiAGkAIgA6AHsAIgBBAD8AIgA6ACIAQQAiACwAIgBBACIAOgBbAHsAIgBBACIAOgA1ADEAOAAuADYAMgAwADgAOQA1ADMAMQA4ADEAOAA5ADIALAAiAEIAIgA6ACIAQQAiAH0ALAB7ACIAQQAiADoANAAyADgALgA0ADMAMgA3ADgAOAA5ADkAMAAxADQANwA4ADYALAAiAEIAIgA6ACIAQgAiAH0AXQAsACIAQwAiADoAMgA0AH0ALAAiAGQAIgA6ACIAIwAxAGYANAAyADgANgAiACwAIgBmACIAOgB0AHIAdQBlAH0ALAB7ACIAQQAiADoAMQA1ADEALgA5ADUAMwA0ADIANQA0ADMANAAzADYANQA4ADcALAAiAEIAIgA6ADEANAA1ADkALgA2ADQAOAAyADMANQAzADEAOAA4ADgANAAsACIARAAiADoANgA3AC4AMAAwADAAMAAwADIANAA3ADkANwAyADQANQA3ACwAIgBDACIAOgA0ACwAIgBFACIAOgAwAC4AMAAxADUANQA4ADgANAAxADMANwA3ADYANwA0ADkAOQA4ADQALAAiAFQAIgA6AHsAIgBBAEEAQQBCAG0ARwBFAEcASwBQAHgAQwB3AHoAaQBQAGwAcwBhAEkAVgBRACIAOgAxAH0ALAAiAEEAPwAiADoAIgBVACIALAAiAGEAIgA6ADQALAAiAGIAIgA6AHsAIgBDACIAOgB7ACIAQQAiADoAMQA1ADMALgA5ADQANAAzADEAMQAxADEANwA3ADYANAA0ADcALAAiAEIAIgA6ADEANAA1ADkALgA2ADQAOAAyADMANgA1ADUAOAA3ADQANgAyAH0AfQAsACIAYwAiADoAewAiAEEAIgA6ACIAQwAiACwAIgBDACIAOgB7ACIAQQAiADoAMQA1ADMALgA5ADYAMgA1ADMAOQA3ADUAMAA5ADYANwAyADcALAAiAEIAIgA6ADEANQAyADYALgA2ADQAOAAyADMANgA1ADUAOAA3ADQANgAyAH0AfQAsACIAZAAiADoAIgAjADEAZgA0ADIAOAA2ACIALAAiAGYAIgA6AHQAcgB1AGUAfQAsAHsAIgBBACIAOgAzADMALgA1ADAAMwA2ADEAOQA2ADUANgA3ADUANwAxADEALAAiAEIAIgA6ADEANQAyADYALgA2ADQAOAAyADMANgA1ADUAOAA3ADQANgAyACwAIgBEACIAOgAyADEAMwAuADgANgAyADAANgAyADEANwAyADQAMgAwADIAOAAsACIAQwAiADoAMgA0ADAALgA5ADEANwA4ADQAMAAxADgAOAA0ADIAMAAyACwAIgBUACIAOgB7ACIAQQBBAEEAQgBtAEcARQBHAEsAUAB4AEMAdwB6AGkAUABsAHMAYQBJAFYAUQAiADoAMQB9ACwAIgBBAD8AIgA6ACIASgAiACwAIgBhACIAOgB7ACIARAAiADoANgA0ACwAIgBDACIAOgA2ADQAfQAsACIAYgAiADoAWwB7ACIAQQAiADoAIgBNADAAIAAwAEgANgA0AFYANgA0AEgAMAB6ACIALAAiAEIAIgA6AHsAIgBBACIAOgBmAGEAbABzAGUALAAiAEMAIgA6ACIAIwBmAGYAZgBmAGYAZgAiAH0ALAAiAEQAIgA6ADUAMQB9AF0ALAAiAGMAIgA6AHsAIgBBACIAOgB7ACIARAAiADoANgA0ACwAIgBDACIAOgA2ADQAfQAsACIAQgAiADoAMwA4AC4AMQAzADEANQAzADcANgA1ADIAMAA2ADUANQA2ACwAIgBDACIAOgA0ADIALgA5ADUANQA1ADcANAAyADYANQA0ADAAMAAzACwAIgBEACIAOgAiAEEAIgAsACIARQAiADoAIgBBACIAfQAsACIAZQAiADoAewB9ACwAIgBmACIAOgBbAHsAIgBBACIAOgB7ACIAQQAiADoAWwB7ACIAQQA/ACIAOgAiAEEAIgAsACIAQQAiADoAIgBcAG4AIgB9AF0ALAAiAEIAIgA6AFsAewAiAEEAPwAiADoAIgBBACIALAAiAEEAIgA6AHsAIgBmAG8AbgB0AC0AcwBpAHoAZQAiADoAewAiAEIAIgA6ACIAMgA1AC4AMwAzADMAOAAiAH0ALAAiAGYAbwBuAHQALQBrAGUAcgBuAGkAbgBnACIAOgB7ACIAQgAiADoAIgBuAG8AcgBtAGEAbAAiAH0ALAAiAGYAbwBuAHQALQBmAGEAbQBpAGwAeQAiADoAewAiAEIAIgA6ACIAWQBBAEYAZABKAGoAVABrADUAVQBVACwAMAAiAH0ALAAiAGYAbwBuAHQALQB3AGUAaQBnAGgAdAAiADoAewAiAEIAIgA6ACIAbgBvAHIAbQBhAGwAIgB9ACwAIgBmAG8AbgB0AC0AcwB0AHkAbABlACIAOgB7ACIAQgAiADoAIgBuAG8AcgBtAGEAbAAiAH0ALAAiAHQAZQB4AHQALQB0AHIAYQBuAHMAZgBvAHIAbQAiADoAewAiAEIAIgA6ACIAbgBvAG4AZQAiAH0ALAAiAGwAZQBhAGQAaQBuAGcAIgA6AHsAIgBCACIAOgAiADEANAAwADAALgAwACIAfQAsACIAdAByAGEAYwBrAGkAbgBnACIAOgB7ACIAQgAiADoAIgAwAC4AMAAiAH0ALAAiAHQAZQB4AHQALQBhAGwAaQBnAG4AIgA6AHsAIgBCACIAOgAiAGMAZQBuAHQAZQByACIAfQAsACIAYwBvAGwAbwByACIAOgB7ACIAQgAiADoAIgAjAGYAZgBmAGYAZgBmACIAfQB9AH0ALAB7ACIAQQA/ACIAOgAiAEIAIgAsACIAQQAiADoAMQB9ACwAewAiAEEAPwAiADoAIgBBACIALAAiAEEAIgA6AHsAIgBmAG8AbgB0AC0AcwBpAHoAZQAiADoAewB9ACwAIgBmAG8AbgB0AC0AawBlAHIAbgBpAG4AZwAiADoAewB9ACwAIgBmAG8AbgB0AC0AZgBhAG0AaQBsAHkAIgA6AHsAfQAsACIAZgBvAG4AdAAtAHcAZQBpAGcAaAB0ACIAOgB7AH0ALAAiAGYAbwBuAHQALQBzAHQAeQBsAGUAIgA6AHsAfQAsACIAdABlAHgAdAAtAHQAcgBhAG4AcwBmAG8AcgBtACIAOgB7AH0ALAAiAGwAZQBhAGQAaQBuAGcAIgA6AHsAfQAsACIAdAByAGEAYwBrAGkAbgBnACIAOgB7AH0ALAAiAHQAZQB4AHQALQBhAGwAaQBnAG4AIgA6AHsAfQAsACIAYwBvAGwAbwByACIAOgB7AH0AfQB9AF0AfQAsACIAQgAiADoAewAiAEEAIgA6AFsAMABdAH0ALAAiAEQAIgA6AHsAIgBEACIAOgA2ADQALAAiAEMAIgA6ADYANAB9ACwAIgBFACIAOgBbADQALgA0ADMAMQA0ADMANQAwADMAMwA2ADkAMgA3ADMAOQBdACwAIgBGACIAOgAiAEIAIgB9AF0ALAAiAGgAIgA6AHsAIgBBAD8AIgA6ACIASAAiACwAIgBBACIAOgAyADQAMAAuADkAMQA3ADgANAAwADEAOAA4ADQAMgAwADIAfQB9ACwAewAiAEEAIgA6ADIAMgA3AC4AMQAxADMAMgAyADUAOAA1ADIAOQAyADUAMQA1ACwAIgBCACIAOgAxADUANwA0AC4ANAAzADUAOQA1ADMAMwA4ADkANAA1ADQANAAsACIARAAiADoAMQAxADgALgAyADgANgA2ADIAOAA1ADEAMQAwADAAMwA5ACwAIgBDACIAOgAyADgALgAxADIAMgAzADIAMAA4ADIANAA3ADMAMQAzADEALAAiAFQAIgA6AHsAIgBBAEEAQQBCAG0ARwBFAEcASwBQAHgAQwB3AHoAaQBQAGwAcwBhAEkAVgBRACIAOgAxAH0ALAAiAEEAPwAiADoAIgBLACIALAAiAGEAIgA6AHsAIgBBACIAOgBbAHsAIgBBAD8AIgA6ACIAQQAiACwAIgBBACIAOgAiAEMAaABhAHQAYgBvAHQAXABuACIAfQBdACwAIgBCACIAOgBbAHsAIgBBAD8AIgA6ACIAQQAiACwAIgBBACIAOgB7ACIAZgBvAG4AdAAtAGYAYQBtAGkAbAB5ACIAOgB7ACIAQgAiADoAIgBZAEEARgBkAEoAagBUAGsANQBVAFUALAAwACIAfQAsACIAdABlAHgAdAAtAGEAbABpAGcAbgAiADoAewAiAEIAIgA6ACIAYwBlAG4AdABlAHIAIgB9ACwAIgBmAG8AbgB0AC0AawBlAHIAbgBpAG4AZwAiADoAewAiAEIAIgA6ACIAbgBvAHIAbQBhAGwAIgB9ACwAIgBmAG8AbgB0AC0AcwBpAHoAZQAiADoAewAiAEIAIgA6ACIAMgAwAC4AMAAiAH0AfQB9ACwAewAiAEEAPwAiADoAIgBCACIALAAiAEEAIgA6ADcAfQAsAHsAIgBBAD8AIgA6ACIAQQAiACwAIgBBACIAOgB7ACIAZgBvAG4AdAAtAHMAdAB5AGwAZQAiADoAewAiAEIAIgA6ACIAbgBvAHIAbQBhAGwAIgB9ACwAIgB0AHIAYQBjAGsAaQBuAGcAIgA6AHsAIgBCACIAOgAiADAALgAwACIAfQAsACIAYwBvAGwAbwByACIAOgB7ACIAQgAiADoAIgAjADAAMAAwADAAMAAwACIAfQAsACIAZgBvAG4AdAAtAHcAZQBpAGcAaAB0ACIAOgB7ACIAQgAiADoAIgBuAG8AcgBtAGEAbAAiAH0ALAAiAHQAZQB4AHQALQB0AHIAYQBuAHMAZgBvAHIAbQAiADoAewAiAEIAIgA6ACIAbgBvAG4AZQAiAH0ALAAiAHMAcABhAGMAaQBuAGcAIgA6AHsAIgBCACIAOgAiADAALgAwACIAfQAsACIAbABlAGEAZABpAG4AZwAiADoAewAiAEIAIgA6ACIAMQA0ADAAMAAuADAAIgB9AH0AfQAsAHsAIgBBAD8AIgA6ACIAQgAiACwAIgBBACIAOgAxAH0ALAB7ACIAQQA/ACIAOgAiAEEAIgAsACIAQQAiADoAewAiAGYAbwBuAHQALQBmAGEAbQBpAGwAeQAiADoAewB9ACwAIgB0AGUAeAB0AC0AYQBsAGkAZwBuACIAOgB7AH0ALAAiAGYAbwBuAHQALQBrAGUAcgBuAGkAbgBnACIAOgB7AH0ALAAiAGYAbwBuAHQALQBzAGkAegBlACIAOgB7AH0ALAAiAGYAbwBuAHQALQBzAHQAeQBsAGUAIgA6AHsAfQAsACIAdAByAGEAYwBrAGkAbgBnACIAOgB7AH0ALAAiAGMAbwBsAG8AcgAiADoAewB9ACwAIgBmAG8AbgB0AC0AdwBlAGkAZwBoAHQAIgA6AHsAfQAsACIAdABlAHgAdAAtAHQAcgBhAG4AcwBmAG8AcgBtACIAOgB7AH0ALAAiAHMAcABhAGMAaQBuAGcAIgA6AHsAfQAsACIAbABlAGEAZABpAG4AZwAiADoAewB9AH0AfQBdAH0ALAAiAGIAIgA6AHsAIgBBACIAOgBbADgAXQB9ACwAIgBkACIAOgAiAEEAIgAsACIAZQAiADoAMQAwADAALgA5ADQANwA1ADMAOQAyADEANAA3ADQAMQAwADQALAAiAGYAIgA6ADIANAAsACIAaAAiADoAIgBBACIAfQAsAHsAIgBBACIAOgA0ADgALgA5ADQAMAA1ADQAMgA1ADgANAA2ADIAOQAzADgANAAsACIAQgAiADoAMQA1ADMAOQAuADIANQA2ADQAMQA5ADkAOQA0ADMANwA1ACwAIgBEACIAOgAxADgAOAAuADYANAA1ADYAOQA1ADMAMAAxADEANgAzADIALAAiAEMAIgA6ADEANgA4AC4AMgA5ADEAMgA2ADUANAA0ADEAMAA4ADIAMQA1ACwAIgBUACIAOgB7ACIAQQBBAEEAQgBtAEcARQBHAEsAUAB4AEMAdwB6AGkAUABsAHMAYQBJAFYAUQAiADoAMQB9ACwAIgBBAD8AIgA6ACIASQAiACwAIgBhACIAOgB7ACIAQQAiADoAZgBhAGwAcwBlACwAIgBCACIAOgB7ACIAQQAiADoAewAiAEEAIgA6ACIATQBBAEYARgAxADAAbQBlAHYAZgBvACIALAAiAEIAIgA6ADEAfQAsACIAQgAiADoAewAiAEQAIgA6ADEAOAA4AC4ANgA0ADUANgA5ADUAMwAwADEAMQA2ADMAMgAsACIAQwAiADoAMQA2ADgALgAyADkAMQAyADYANQA0ADQAMQAwADgAMgAxADUAfQB9AH0AfQAsAHsAIgBBACIAOgAzADIANAAuADYAMQAxADYANgA0ADcAMAA5ADAAMwA0ADMALAAiAEIAIgA6ADkAOQAxAC4AMwAxADkANwAyADAANAAzADkAMAA1ADkAOQAsACIARAAiADoAMQAzADQALgA1ADgANgAzADQAMAA3ADUAOQA1ADYAMwA0ADMALAAiAEMAIgA6ADQALAAiAEUAIgA6ADkAMAAsACIAVAAiADoAewAiAEEAQQBBAEIAbQBHAEUARwBLAFAAeABDAHcAegBpAFAAbABzAGEASQBWAFEAIgA6ADEAfQAsACIAQQA/ACIAOgAiAFUAIgAsACIAYQAiADoANAAsACIAYgAiADoAewAiAEMAIgA6AHsAIgBBACIAOgAyADUAOQAuADMAMQA4ADQAOQA0ADMAMgA5ADIANQAyADYALAAiAEIAIgA6ADEAMAA1ADgALgA2ADEAMgA4ADkAMAA4ADEAOAA4ADQAMQA2AH0AfQAsACIAYwAiADoAewAiAEEAIgA6ACIAQwAiACwAIgBDACIAOgB7ACIAQQAiADoAMwA5ADMALgA5ADAANAA4ADMANQAwADgAOAA4ADEANgAsACIAQgAiADoAMQAwADUAOAAuADYAMQAyADgAOQAwADgAMQA4ADgANAAxADYAfQB9ACwAIgBkACIAOgAiACMAMQBmADQAMgA4ADYAIgAsACIAZgAiADoAdAByAHUAZQB9ACwAewAiAEEAIgA6ADEAOAAuADMAOAAzADUAMAAyADgAMgAyADMANgA2ADAAMQAsACIAQgAiADoANwAuADEAMAA1ADQAMgA3ADMANQA3ADYAMAAxADAAMAAyAGUALQAxADQALAAiAEQAIgA6ADIAMAA1AC4ANQA1ADcAMwA0ADQANgA3ADYAMgA0ADkANwAsACIAQwAiADoAMgA2ADcALgAxADIAMQA2ADEANgA3ADMANwA5ADgAMgA5ADUALAAiAFQAIgA6AHsAIgBBAEEAQQBCAG0ARwBFAEcASwBQAHgAQwB3AHoAaQBQAGwAcwBhAEkAVgBRACIAOgAxAH0ALAAiAEEAPwAiADoAIgBKACIALAAiAGEAIgA6AHsAIgBEACIAOgA2ADQALAAiAEMAIgA6ADYANAB9ACwAIgBiACIAOgBbAHsAIgBBACIAOgAiAE0AMAAgADAASAA2ADQAVgA2ADQASAAwAHoAIgAsACIAQgAiADoAewAiAEEAIgA6AGYAYQBsAHMAZQAsACIAQwAiADoAIgAjAGYAZgBmAGYAZgBmACIAfQAsACIARAAiADoANQAxAH0AXQAsACIAYwAiADoAewAiAEEAIgA6AHsAIgBEACIAOgA2ADQALAAiAEMAIgA6ADYANAB9ACwAIgBCACIAOgA0ADgALgA5ADEAOQAyADIANQA0ADkANwA2ADUANAA5ADEALAAiAEMAIgA6ADYAMwAuADUANwAwADQAOQA3ADIAMAAxADUANgA5ADIANQAsACIARAAiADoAIgBBACIALAAiAEUAIgA6ACIAQQAiAH0ALAAiAGUAIgA6AHsAfQAsACIAZgAiADoAWwB7ACIAQQAiADoAewAiAEEAIgA6AFsAewAiAEEAPwAiADoAIgBBACIALAAiAEEAIgA6ACIAXABuACIAfQBdACwAIgBCACIAOgBbAHsAIgBBAD8AIgA6ACIAQQAiACwAIgBBACIAOgB7ACIAdAByAGEAYwBrAGkAbgBnACIAOgB7ACIAQgAiADoAIgAwAC4AMAAiAH0ALAAiAHQAZQB4AHQALQBhAGwAaQBnAG4AIgA6AHsAIgBCACIAOgAiAGMAZQBuAHQAZQByACIAfQAsACIAZgBvAG4AdAAtAHcAZQBpAGcAaAB0ACIAOgB7ACIAQgAiADoAIgBuAG8AcgBtAGEAbAAiAH0ALAAiAGMAbwBsAG8AcgAiADoAewAiAEIAIgA6ACIAIwBmAGYAZgBmAGYAZgAiAH0ALAAiAGYAbwBuAHQALQBrAGUAcgBuAGkAbgBnACIAOgB7ACIAQgAiADoAIgBuAG8AcgBtAGEAbAAiAH0ALAAiAGwAZQBhAGQAaQBuAGcAIgA6AHsAIgBCACIAOgAiADEANAAwADAALgAwACIAfQAsACIAZgBvAG4AdAAtAHMAaQB6AGUAIgA6AHsAIgBCACIAOgAiADIANQAuADMAMwAzADMAIgB9ACwAIgB0AGUAeAB0AC0AdAByAGEAbgBzAGYAbwByAG0AIgA6AHsAIgBCACIAOgAiAG4AbwBuAGUAIgB9ACwAIgBmAG8AbgB0AC0AZgBhAG0AaQBsAHkAIgA6AHsAIgBCACIAOgAiAFkAQQBGAGQASgBqAFQAawA1AFUAVQAsADAAIgB9ACwAIgBmAG8AbgB0AC0AcwB0AHkAbABlACIAOgB7ACIAQgAiADoAIgBuAG8AcgBtAGEAbAAiAH0AfQB9ACwAewAiAEEAPwAiADoAIgBCACIALAAiAEEAIgA6ADEAfQAsAHsAIgBBAD8AIgA6ACIAQQAiACwAIgBBACIAOgB7ACIAdAByAGEAYwBrAGkAbgBnACIAOgB7AH0ALAAiAHQAZQB4AHQALQBhAGwAaQBnAG4AIgA6AHsAfQAsACIAZgBvAG4AdAAtAHcAZQBpAGcAaAB0ACIAOgB7AH0ALAAiAGMAbwBsAG8AcgAiADoAewB9ACwAIgBmAG8AbgB0AC0AawBlAHIAbgBpAG4AZwAiADoAewB9ACwAIgBsAGUAYQBkAGkAbgBnACIAOgB7AH0ALAAiAGYAbwBuAHQALQBzAGkAegBlACIAOgB7AH0ALAAiAHQAZQB4AHQALQB0AHIAYQBuAHMAZgBvAHIAbQAiADoAewB9ACwAIgBmAG8AbgB0AC0AZgBhAG0AaQBsAHkAIgA6AHsAfQAsACIAZgBvAG4AdAAtAHMAdAB5AGwAZQAiADoAewB9AH0AfQBdAH0ALAAiAEIAIgA6AHsAIgBBACIAOgBbADAAXQB9ACwAIgBEACIAOgB7ACIARAAiADoANgA0ACwAIgBDACIAOgA2ADQAfQAsACIARQAiADoAWwAzAC4AMwAyADAAMAA3ADgANwAyADMANAA4ADYAMwA5ADUAOABdACwAIgBGACIAOgAiAEIAIgB9AF0ALAAiAGgAIgA6AHsAIgBBAD8AIgA6ACIASAAiACwAIgBBACIAOgAyADYANwAuADEAMgAxADYAMQA2ADcAMwA3ADkAOAAyADkANQB9AH0ALAB7ACIAQQAiADoANgA3AC4AMwA0ADgANQA3ADMAMgA4ADkANAA3ADkANwAyACwAIgBCACIAOgAyADMALgAyADMAOQAyADYAMwAxADYAOQA1ADQANgAwADMANQAsACIARAAiADoAMQA2ADYALgAxADMAOAA0ADQANQA1ADQAOAAzADAANQA1ADgALAAiAEMAIgA6ADEAMQA1AC4AOQAzADEANwA3ADIANAA0ADMAMAA0ADgANAAsACIAVAAiADoAewAiAEEAQQBBAEIAbQBHAEUARwBLAFAAeABDAHcAegBpAFAAbABzAGEASQBWAFEAIgA6ADEAfQAsACIAQQA/ACIAOgAiAEkAIgAsACIAYQAiADoAewAiAEIAIgA6AHsAIgBBACIAOgB7ACIAQQAiADoAIgBNAEEARwB1AHYAZgA2AGoAQgBWADAAIgAsACIAQgAiADoAMQB9ACwAIgBJACIAOgB7ACIAQQAiADoAIgBNAEEARwB1AHYAZgBjAHoARgBiADQAIgAsACIAQgAiADoAMQB9ACwAIgBCACIAOgB7ACIAQQAiADoALQAyAC4AMQAzADEANgAyADgAMgAwADcAMgA4ADAAMwAwADAANgBlAC0AMQA0ACwAIgBCACIAOgAtADIALgA4ADQAMgAxADcAMAA5ADQAMwAwADQAMAA0ADAAMQBlAC0AMQA0ACwAIgBEACIAOgAxADYANgAuADEAMwA4ADQANAA1ADUANAA4ADMAMAA1ADYANAAsACIAQwAiADoAMQAxADUALgA5ADMAMQA3ADcAMgA0ADQAMwAwADQAOAA0ADQAfQB9AH0AfQAsAHsAIgBBACIAOgAxADkAMgAuADAANgA4ADAAMwA1ADIANQA5ADUANgAxADEANgAsACIARAAiADoAMgAxADIALgA2ADEANgA5ADcAMQA4ADgANwAzADkANwA2ACwAIgBDACIAOgA4ADAALAAiAFQAIgA6AHsAIgBBAEEAQQBCAG0ARwBFAEcASwBQAHgAQwB3AHoAaQBQAGwAcwBhAEkAVgBRACIAOgAxAH0ALAAiAEEAPwAiADoAIgBLACIALAAiAGEAIgA6AHsAIgBBACIAOgBbAHsAIgBBAD8AIgA6ACIAQQAiACwAIgBBACIAOgAiAFQAYQBiAHUAbABhAHIAIABEAGEAdABhAFwAbgBGAEIAUwAiAH0ALAB7ACIAQQA/ACIAOgAiAEIAIgAsACIAQQAiADoAMQA2AH0ALAB7ACIAQQA/ACIAOgAiAEEAIgAsACIAQQAiADoAIgAsACAATwBHAFQAVAAiAH0ALAB7ACIAQQA/ACIAOgAiAEIAIgAsACIAQQAiADoAOAB9ACwAewAiAEEAPwAiADoAIgBBACIALAAiAEEAIgA6ACIALAAgAEgAYgBBADEAYwAsACAAUgBCAFMALAAgACIAfQAsAHsAIgBBAD8AIgA6ACIAQgAiACwAIgBBACIAOgAxAH0ALAB7ACIAQQA/ACIAOgAiAEEAIgAsACIAQQAiADoAIgAzAFAAGSBzACIAfQAsAHsAIgBBAD8AIgA6ACIAQgAiACwAIgBBACIAOgAyADIAfQAsAHsAIgBBAD8AIgA6ACIAQQAiACwAIgBBACIAOgAiAFwAbgAiAH0AXQAsACIAQgAiADoAWwB7ACIAQQA/ACIAOgAiAEEAIgAsACIAQQAiADoAewAiAGYAbwBuAHQALQBmAGEAbQBpAGwAeQAiADoAewAiAEIAIgA6ACIAWQBBAEYAZABKAGoAVABrADUAVQBVACwAMAAiAH0ALAAiAHQAZQB4AHQALQBhAGwAaQBnAG4AIgA6AHsAIgBCACIAOgAiAGMAZQBuAHQAZQByACIAfQAsACIAZgBvAG4AdAAtAGsAZQByAG4AaQBuAGcAIgA6AHsAIgBCACIAOgAiAG4AbwByAG0AYQBsACIAfQAsACIAZgBvAG4AdAAtAHMAaQB6AGUAIgA6AHsAIgBCACIAOgAiADIAMAAuADAAIgB9AH0AfQAsAHsAIgBBAD8AIgA6ACIAQgAiACwAIgBBACIAOgA4ADcAfQAsAHsAIgBBAD8AIgA6ACIAQQAiACwAIgBBACIAOgB7ACIAZgBvAG4AdAAtAHMAdAB5AGwAZQAiADoAewAiAEIAIgA6ACIAbgBvAHIAbQBhAGwAIgB9ACwAIgB0AHIAYQBjAGsAaQBuAGcAIgA6AHsAIgBCACIAOgAiADAALgAwACIAfQAsACIAYwBvAGwAbwByACIAOgB7ACIAQgAiADoAIgAjADAAMAAwADAAMAAwACIAfQAsACIAZgBvAG4AdAAtAHcAZQBpAGcAaAB0ACIAOgB7ACIAQgAiADoAIgBuAG8AcgBtAGEAbAAiAH0ALAAiAHQAZQB4AHQALQB0AHIAYQBuAHMAZgBvAHIAbQAiADoAewAiAEIAIgA6ACIAbgBvAG4AZQAiAH0ALAAiAHMAcABhAGMAaQBuAGcAIgA6AHsAIgBCACIAOgAiADAALgAwACIAfQAsACIAbABlAGEAZABpAG4AZwAiADoAewAiAEIAIgA6ACIAMQA0ADAAMAAuADAAIgB9AH0AfQAsAHsAIgBBAD8AIgA6ACIAQgAiACwAIgBBACIAOgAxAH0ALAB7ACIAQQA/ACIAOgAiAEEAIgAsACIAQQAiADoAewAiAGYAbwBuAHQALQBmAGEAbQBpAGwAeQAiADoAewB9ACwAIgB0AGUAeAB0AC0AYQBsAGkAZwBuACIAOgB7AH0ALAAiAGYAbwBuAHQALQBrAGUAcgBuAGkAbgBnACIAOgB7AH0ALAAiAGYAbwBuAHQALQBzAGkAegBlACIAOgB7AH0ALAAiAGYAbwBuAHQALQBzAHQAeQBsAGUAIgA6AHsAfQAsACIAdAByAGEAYwBrAGkAbgBnACIAOgB7AH0ALAAiAGMAbwBsAG8AcgAiADoAewB9ACwAIgBmAG8AbgB0AC0AdwBlAGkAZwBoAHQAIgA6AHsAfQAsACIAdABlAHgAdAAtAHQAcgBhAG4AcwBmAG8AcgBtACIAOgB7AH0ALAAiAHMAcABhAGMAaQBuAGcAIgA6AHsAfQAsACIAbABlAGEAZABpAG4AZwAiADoAewB9AH0AfQBdAH0ALAAiAGIAIgA6AHsAIgBBACIAOgBbADEAMwAsADEAOAAsADEAMABdAH0ALAAiAGQAIgA6ACIAQQAiACwAIgBnACIAOgBmAGEAbABzAGUALAAiAGgAIgA6ACIAQQAiAH0ALAB7ACIAQQAiADoAMgAyAC4ANwAwADcAOQAwADkAMwAwADEAMQAzADMAMAAzADIALAAiAEIAIgA6ADUANgAuADEAMwAzADcAOQA1ADYAMAAxADcANQA1ADkAMQAsACIARAAiADoAMQAwADAALgAzADQAOQAzADgAMAA2ADgAMwA4ADgANQA4ADQALAAiAEMAIgA6ADIAOQAuADkAMwAzADMAMgAwADAAMAAwADAAMAAwADAAMAAyACwAIgBUACIAOgB7ACIAQQBBAEEAQgBtAEcARQBHAEsAUAB4AEMAdwB6AGkAUABsAHMAYQBJAFYAUQAiADoAMQB9ACwAIgBBAD8AIgA6ACIASwAiACwAIgBhACIAOgB7ACIAQQAiADoAWwB7ACIAQQA/ACIAOgAiAEEAIgAsACIAQQAiADoAIgBEAGEAdABhACAAUwBlAHQAXABuACIAfQBdACwAIgBCACIAOgBbAHsAIgBBAD8AIgA6ACIAQQAiACwAIgBBACIAOgB7ACIAdABlAHgAdAAtAGEAbABpAGcAbgAiADoAewAiAEIAIgA6ACIAYwBlAG4AdABlAHIAIgB9ACwAIgBmAG8AbgB0AC0AdwBlAGkAZwBoAHQAIgA6AHsAIgBCACIAOgAiAGIAbwBsAGQAIgB9ACwAIgBmAG8AbgB0AC0AawBlAHIAbgBpAG4AZwAiADoAewAiAEIAIgA6ACIAbgBvAHIAbQBhAGwAIgB9ACwAIgBmAG8AbgB0AC0AZgBhAG0AaQBsAHkAIgA6AHsAIgBCACIAOgAiAFkAQQBGAGQASgB1AEYAQwBuAGEAdwAsADAAIgB9ACwAIgBmAG8AbgB0AC0AcwBpAHoAZQAiADoAewAiAEIAIgA6ACIAMgA1AC4AMwAzADMANAAiAH0AfQB9ACwAewAiAEEAPwAiADoAIgBCACIALAAiAEEAIgA6ADgAfQAsAHsAIgBBAD8AIgA6ACIAQQAiACwAIgBBACIAOgB7ACIAcwBwAGEAYwBpAG4AZwAiADoAewAiAEIAIgA6ACIAMAAuADAAIgB9ACwAIgBjAG8AbABvAHIAIgA6AHsAIgBCACIAOgAiACMAMAAwADAAMAAwADAAIgB9ACwAIgBsAGUAYQBkAGkAbgBnACIAOgB7ACIAQgAiADoAIgAxADQAMAAwAC4AMAAiAH0ALAAiAHQAZQB4AHQALQB0AHIAYQBuAHMAZgBvAHIAbQAiADoAewAiAEIAIgA6ACIAbgBvAG4AZQAiAH0ALAAiAHQAcgBhAGMAawBpAG4AZwAiADoAewAiAEIAIgA6ACIAMAAuADAAIgB9AH0AfQAsAHsAIgBBAD8AIgA6ACIAQgAiACwAIgBBACIAOgAxAH0ALAB7ACIAQQA/ACIAOgAiAEEAIgAsACIAQQAiADoAewAiAHQAZQB4AHQALQBhAGwAaQBnAG4AIgA6AHsAfQAsACIAZgBvAG4AdAAtAHcAZQBpAGcAaAB0ACIAOgB7AH0ALAAiAGYAbwBuAHQALQBrAGUAcgBuAGkAbgBnACIAOgB7AH0ALAAiAGYAbwBuAHQALQBmAGEAbQBpAGwAeQAiADoAewB9ACwAIgBmAG8AbgB0AC0AcwBpAHoAZQAiADoAewB9ACwAIgBzAHAAYQBjAGkAbgBnACIAOgB7AH0ALAAiAGMAbwBsAG8AcgAiADoAewB9ACwAIgBsAGUAYQBkAGkAbgBnACIAOgB7AH0ALAAiAHQAZQB4AHQALQB0AHIAYQBuAHMAZgBvAHIAbQAiADoAewB9ACwAIgB0AHIAYQBjAGsAaQBuAGcAIgA6AHsAfQB9AH0AXQB9ACwAIgBiACIAOgB7ACIAQQAiADoAWwA5AF0AfQAsACIAZAAiADoAIgBBACIALAAiAGgAIgA6ACIAQQAiAH0ALAB7ACIAQQAiADoAMwAzADIALgA4ADgAOAA2ADIAMgAxADYAMQA5ADMANQA4ADcALAAiAEIAIgA6ADcAMgAzAC4AMwA4ADUAMAAzADkAMAAwADIANwAzADcANwAsACIARAAiADoAMgAxADAALgA5ADkAMAA3ADMAOQA4ADcAMwA5ADEANQA1ADIALAAiAEMAIgA6ADUAMgAuADAAMAAwADAAMAAwADAAMAAwADAAMAAwADAAMQA0ACwAIgBUACIAOgB7ACIAQQBBAEEAQgBtAEcARQBHAEsAUAB4AEMAdwB6AGkAUABsAHMAYQBJAFYAUQAiADoAMQB9ACwAIgBBAD8AIgA6ACIASwAiACwAIgBhACIAOgB7ACIAQQAiADoAWwB7ACIAQQA/ACIAOgAiAEEAIgAsACIAQQAiADoAIgBUAHIAYQBpAG4AIAAmAFwAbgBUAGUAcwB0ACIAfQAsAHsAIgBBAD8AIgA6ACIAQgAiACwAIgBBACIAOgAxADgAfQAsAHsAIgBBAD8AIgA6ACIAQQAiACwAIgBBACIAOgAiAFwAbgAiAH0AXQAsACIAQgAiADoAWwB7ACIAQQA/ACIAOgAiAEEAIgAsACIAQQAiADoAewAiAGYAbwBuAHQALQBmAGEAbQBpAGwAeQAiADoAewAiAEIAIgA6ACIAWQBBAEYAZABKAGoAVABrADUAVQBVACwAMAAiAH0ALAAiAGYAbwBuAHQALQBzAGkAegBlACIAOgB7ACIAQgAiADoAIgAyADAALgAwACIAfQAsACIAdABlAHgAdAAtAGEAbABpAGcAbgAiADoAewAiAEIAIgA6ACIAYwBlAG4AdABlAHIAIgB9AH0AfQAsAHsAIgBBAD8AIgA6ACIAQgAiACwAIgBBACIAOgAxADMAfQAsAHsAIgBBAD8AIgA6ACIAQQAiACwAIgBBACIAOgB7ACIAZgBvAG4AdAAtAGsAZQByAG4AaQBuAGcAIgA6AHsAIgBCACIAOgAiAG4AbwByAG0AYQBsACIAfQB9AH0ALAB7ACIAQQA/ACIAOgAiAEIAIgAsACIAQQAiADoAMQA3AH0ALAB7ACIAQQA/ACIAOgAiAEEAIgAsACIAQQAiADoAewAiAGYAbwBuAHQALQBzAHQAeQBsAGUAIgA6AHsAIgBCACIAOgAiAG4AbwByAG0AYQBsACIAfQAsACIAdAByAGEAYwBrAGkAbgBnACIAOgB7ACIAQgAiADoAIgAwAC4AMAAiAH0ALAAiAGMAbwBsAG8AcgAiADoAewAiAEIAIgA6ACIAIwAwADAAMAAwADAAMAAiAH0ALAAiAGYAbwBuAHQALQB3AGUAaQBnAGgAdAAiADoAewAiAEIAIgA6ACIAbgBvAHIAbQBhAGwAIgB9ACwAIgB0AGUAeAB0AC0AdAByAGEAbgBzAGYAbwByAG0AIgA6AHsAIgBCACIAOgAiAG4AbwBuAGUAIgB9ACwAIgBzAHAAYQBjAGkAbgBnACIAOgB7ACIAQgAiADoAIgAwAC4AMAAiAH0ALAAiAGwAZQBhAGQAaQBuAGcAIgA6AHsAIgBCACIAOgAiADEANAAwADAALgAwACIAfQB9AH0ALAB7ACIAQQA/ACIAOgAiAEIAIgAsACIAQQAiADoAMQB9ACwAewAiAEEAPwAiADoAIgBBACIALAAiAEEAIgA6AHsAIgBmAG8AbgB0AC0AZgBhAG0AaQBsAHkAIgA6AHsAfQAsACIAZgBvAG4AdAAtAHMAaQB6AGUAIgA6AHsAfQAsACIAdABlAHgAdAAtAGEAbABpAGcAbgAiADoAewB9ACwAIgBmAG8AbgB0AC0AawBlAHIAbgBpAG4AZwAiADoAewB9ACwAIgBmAG8AbgB0AC0AcwB0AHkAbABlACIAOgB7AH0ALAAiAHQAcgBhAGMAawBpAG4AZwAiADoAewB9ACwAIgBjAG8AbABvAHIAIgA6AHsAfQAsACIAZgBvAG4AdAAtAHcAZQBpAGcAaAB0ACIAOgB7AH0ALAAiAHQAZQB4AHQALQB0AHIAYQBuAHMAZgBvAHIAbQAiADoAewB9ACwAIgBzAHAAYQBjAGkAbgBnACIAOgB7AH0ALAAiAGwAZQBhAGQAaQBuAGcAIgA6AHsAfQB9AH0AXQB9ACwAIgBiACIAOgB7ACIAQQAiADoAWwA4ACwANQBdAH0ALAAiAGQAIgA6ACIAQQAiACwAIgBlACIAOgAyADEAMAAuADkAOQAwADcAMwA5ADgANwAzADkAMQA1ADUANAAsACIAZgAiADoANQAyACwAIgBnACIAOgBmAGEAbABzAGUALAAiAGgAIgA6ACIAQQAiAH0ALAB7ACIAQQAiADoANQA2AC4ANQA0ADUAMgAyADEANgA0ADYAMAAzADAAOAA3ACwAIgBCACIAOgAxADMAMAAzAC4AMQAyADYANAA2ADIAOAA4ADQAOAA5ADAAMwAsACIARAAiADoAMQA1ADYALgA1ADIAMQA3ADcAMwA2ADcAMwA4ADUANQA4ADgALAAiAEMAIgA6ADEAOQAwAC4ANwA5ADgAMQA3ADkAMAA5ADAANgA1ADMANwAsACIAVAAiADoAewAiAEEAQQBBAEIAbQBHAEUARwBLAFAAeABDAHcAegBpAFAAbABzAGEASQBWAFEAIgA6ADEAfQAsACIAQQA/ACIAOgAiAEoAIgAsACIAYQAiADoAewAiAEQAIgA6ADYANAAsACIAQwAiADoANgA0AH0ALAAiAGIAIgA6AFsAewAiAEEAIgA6ACIATQAwACAAMABIADYANABWADYANABIADAAegAiACwAIgBCACIAOgB7ACIAQQAiADoAZgBhAGwAcwBlACwAIgBDACIAOgAiACMAZgBmAGYAZgBmAGYAIgB9ACwAIgBEACIAOgA1ADEAfQBdACwAIgBjACIAOgB7ACIAQQAiADoAewAiAEQAIgA6ADYANAAsACIAQwAiADoANgA0AH0ALAAiAEIAIgA6ADIAOAAuADgANQAyADEANQAzADEAOAA2ADIAMAAzADkANgA0ACwAIgBDACIAOgAzADUALgAxADcAMAA0ADMAMQAzADEAOAAwADIAOAAyADkALAAiAEQAIgA6ACIAQQAiACwAIgBFACIAOgAiAEEAIgB9ACwAIgBlACIAOgB7AH0ALAAiAGYAIgA6AFsAewAiAEEAIgA6AHsAIgBBACIAOgBbAHsAIgBBAD8AIgA6ACIAQQAiACwAIgBBACIAOgAiAFwAbgAiAH0AXQAsACIAQgAiADoAWwB7ACIAQQA/ACIAOgAiAEEAIgAsACIAQQAiADoAewAiAGYAbwBuAHQALQBzAGkAegBlACIAOgB7ACIAQgAiADoAIgAyADUALgAzADMANAAxACIAfQAsACIAZgBvAG4AdAAtAGsAZQByAG4AaQBuAGcAIgA6AHsAIgBCACIAOgAiAG4AbwByAG0AYQBsACIAfQAsACIAZgBvAG4AdAAtAGYAYQBtAGkAbAB5ACIAOgB7ACIAQgAiADoAIgBZAEEARgBkAEoAagBUAGsANQBVAFUALAAwACIAfQAsACIAZgBvAG4AdAAtAHcAZQBpAGcAaAB0ACIAOgB7ACIAQgAiADoAIgBuAG8AcgBtAGEAbAAiAH0ALAAiAGYAbwBuAHQALQBzAHQAeQBsAGUAIgA6AHsAIgBCACIAOgAiAG4AbwByAG0AYQBsACIAfQAsACIAdABlAHgAdAAtAHQAcgBhAG4AcwBmAG8AcgBtACIAOgB7ACIAQgAiADoAIgBuAG8AbgBlACIAfQAsACIAbABlAGEAZABpAG4AZwAiADoAewAiAEIAIgA6ACIAMQA0ADAAMAAuADAAIgB9ACwAIgB0AHIAYQBjAGsAaQBuAGcAIgA6AHsAIgBCACIAOgAiADAALgAwACIAfQAsACIAdABlAHgAdAAtAGEAbABpAGcAbgAiADoAewAiAEIAIgA6ACIAYwBlAG4AdABlAHIAIgB9ACwAIgBjAG8AbABvAHIAIgA6AHsAIgBCACIAOgAiACMAZgBmAGYAZgBmAGYAIgB9AH0AfQAsAHsAIgBBAD8AIgA6ACIAQgAiACwAIgBBACIAOgAxAH0ALAB7ACIAQQA/ACIAOgAiAEEAIgAsACIAQQAiADoAewAiAGYAbwBuAHQALQBzAGkAegBlACIAOgB7AH0ALAAiAGYAbwBuAHQALQBrAGUAcgBuAGkAbgBnACIAOgB7AH0ALAAiAGYAbwBuAHQALQBmAGEAbQBpAGwAeQAiADoAewB9ACwAIgBmAG8AbgB0AC0AdwBlAGkAZwBoAHQAIgA6AHsAfQAsACIAZgBvAG4AdAAtAHMAdAB5AGwAZQAiADoAewB9ACwAIgB0AGUAeAB0AC0AdAByAGEAbgBzAGYAbwByAG0AIgA6AHsAfQAsACIAbABlAGEAZABpAG4AZwAiADoAewB9ACwAIgB0AHIAYQBjAGsAaQBuAGcAIgA6AHsAfQAsACIAdABlAHgAdAAtAGEAbABpAGcAbgAiADoAewB9ACwAIgBjAG8AbABvAHIAIgA6AHsAfQB9AH0AXQB9ACwAIgBCACIAOgB7ACIAQQAiADoAWwAwAF0AfQAsACIARAAiADoAewAiAEQAIgA6ADYANAAsACIAQwAiADoANgA0AH0ALAAiAEUAIgA6AFsANAAuADIAOAA2ADMAOAA4ADAANQA4ADQANQA2ADcAMAA5AF0ALAAiAEYAIgA6ACIAQgAiAH0AXQAsACIAaAAiADoAewAiAEEAPwAiADoAIgBIACIALAAiAEEAIgA6ADEAOQAwAC4ANwA5ADgAMQA3ADkAMAA5ADAANgA1ADMANwB9AH0ALAB7ACIAQQAiADoAMgAwADQALgA2ADkANAA1ADkAMwAwADEAOAA1ADEANwAwADMALAAiAEIAIgA6ADEAMwAyADQALgAxADcAOQA4ADcANwA2ADQAMgAyADYANAAsACIARAAiADoAMQAxADQALgA0ADEANAA5ADQANAAxADUAOQAxADAAOAA1ADYALAAiAEMAIgA6ADIANwAuADIAMAAxADgAMwA4ADUAMQAxADEANgAyADIANQAsACIAVAAiADoAewAiAEEAQQBBAEIAbQBHAEUARwBLAFAAeABDAHcAegBpAFAAbABzAGEASQBWAFEAIgA6ADEAfQAsACIAQQA/ACIAOgAiAEsAIgAsACIAYQAiADoAewAiAEEAIgA6AFsAewAiAEEAPwAiADoAIgBBACIALAAiAEEAIgA6ACIATABMAE0AIgB9ACwAewAiAEEAPwAiADoAIgBCACIALAAiAEEAIgA6ADcAfQAsAHsAIgBBAD8AIgA6ACIAQQAiACwAIgBBACIAOgAiAFwAbgAiAH0AXQAsACIAQgAiADoAWwB7ACIAQQA/ACIAOgAiAEEAIgAsACIAQQAiADoAewAiAGYAbwBuAHQALQBmAGEAbQBpAGwAeQAiADoAewAiAEIAIgA6ACIAWQBBAEYAZABKAGoAVABrADUAVQBVACwAMAAiAH0ALAAiAGYAbwBuAHQALQBzAGkAegBlACIAOgB7ACIAQgAiADoAIgAyADAALgAwACIAfQAsACIAdABlAHgAdAAtAGEAbABpAGcAbgAiADoAewAiAEIAIgA6ACIAYwBlAG4AdABlAHIAIgB9ACwAIgBmAG8AbgB0AC0AawBlAHIAbgBpAG4AZwAiADoAewAiAEIAIgA6ACIAbgBvAHIAbQBhAGwAIgB9AH0AfQAsAHsAIgBBAD8AIgA6ACIAQgAiACwAIgBBACIAOgAxADAAfQAsAHsAIgBBAD8AIgA6ACIAQQAiACwAIgBBACIAOgB7ACIAZgBvAG4AdAAtAHMAdAB5AGwAZQAiADoAewAiAEIAIgA6ACIAbgBvAHIAbQBhAGwAIgB9ACwAIgB0AHIAYQBjAGsAaQBuAGcAIgA6AHsAIgBCACIAOgAiADAALgAwACIAfQAsACIAYwBvAGwAbwByACIAOgB7ACIAQgAiADoAIgAjADAAMAAwADAAMAAwACIAfQAsACIAZgBvAG4AdAAtAHcAZQBpAGcAaAB0ACIAOgB7ACIAQgAiADoAIgBuAG8AcgBtAGEAbAAiAH0ALAAiAHQAZQB4AHQALQB0AHIAYQBuAHMAZgBvAHIAbQAiADoAewAiAEIAIgA6ACIAbgBvAG4AZQAiAH0ALAAiAHMAcABhAGMAaQBuAGcAIgA6AHsAIgBCACIAOgAiADAALgAwACIAfQAsACIAbABlAGEAZABpAG4AZwAiADoAewAiAEIAIgA6ACIAMQA0ADAAMAAuADAAIgB9AH0AfQAsAHsAIgBBAD8AIgA6ACIAQgAiACwAIgBBACIAOgAxAH0ALAB7ACIAQQA/ACIAOgAiAEEAIgAsACIAQQAiADoAewAiAGYAbwBuAHQALQBmAGEAbQBpAGwAeQAiADoAewB9ACwAIgBmAG8AbgB0AC0AcwBpAHoAZQAiADoAewB9ACwAIgB0AGUAeAB0AC0AYQBsAGkAZwBuACIAOgB7AH0ALAAiAGYAbwBuAHQALQBrAGUAcgBuAGkAbgBnACIAOgB7AH0ALAAiAGYAbwBuAHQALQBzAHQAeQBsAGUAIgA6AHsAfQAsACIAdAByAGEAYwBrAGkAbgBnACIAOgB7AH0ALAAiAGMAbwBsAG8AcgAiADoAewB9ACwAIgBmAG8AbgB0AC0AdwBlAGkAZwBoAHQAIgA6AHsAfQAsACIAdABlAHgAdAAtAHQAcgBhAG4AcwBmAG8AcgBtACIAOgB7AH0ALAAiAHMAcABhAGMAaQBuAGcAIgA6AHsAfQAsACIAbABlAGEAZABpAG4AZwAiADoAewB9AH0AfQBdAH0ALAAiAGIAIgA6AHsAIgBBACIAOgBbADQAXQB9ACwAIgBkACIAOgAiAEEAIgAsACIAZQAiADoAMQAwADAALgA5ADQANwA1ADMAOQAyADEANAA3ADQAMQAwADQALAAiAGYAIgA6ADIANAAsACIAZwAiADoAZgBhAGwAcwBlACwAIgBoACIAOgAiAEEAIgB9ACwAewAiAEEAIgA6ADcAMQAuADkAOQA2ADcAOQA1ADEAOQAyADkANwA4ADIAMwAsACIAQgAiADoAMQAzADIAMAAuADQAOAAwADMAMwAyADYANwA5ADYAOQAxADQALAAiAEQAIgA6ADEAMQAyAC4ANwA2ADIANAA0ADEAMAA1ADgANAA0ADEANAA1ACwAIgBDACIAOgAxADIANwAuADgANwA0ADkAMwAzADEANQA5ADAANQA3ADMAMwAsACIAVAAiADoAewAiAEEAQQBBAEIAbQBHAEUARwBLAFAAeABDAHcAegBpAFAAbABzAGEASQBWAFEAIgA6ADEAfQAsACIAQQA/ACIAOgAiAEkAIgAsACIAYQAiADoAewAiAEEAIgA6AGYAYQBsAHMAZQAsACIAQgAiADoAewAiAEEAIgA6AHsAIgBBACIAOgAiAE0AQQBGAHAAbABZAGkAOQBPAFAAWQAiACwAIgBCACIAOgAxAH0ALAAiAEIAIgA6AHsAIgBEACIAOgAxADEAMgAuADcANgAyADQANAAxADAANQA4ADQANAAxADQANQAsACIAQwAiADoAMQAyADcALgA4ADcANAA5ADMAMwAxADUAOQAwADUANwAzADMAfQB9ACwAIgBHACIAOgB0AHIAdQBlAH0AfQAsAHsAIgBBACIAOgAxADQAOQAuADkANAA0ADMAMQAxADEAOQAxADMANQA3ADUANwAsACIAQgAiADoAMQAxADUAOQAuADkANgA5ADUAMQAzADMAMQA0ADMANgA3ADgALAAiAEQAIgA6ADEANAAzAC4AMQA1ADYAOQA0ADkANQA3ADAANQAyADIANQA2ACwAIgBDACIAOgAzADAANAAuADUANgAzADMANwA0ADYAMAA2ADYANQAxADUALAAiAFQAIgA6AHsAIgBBAEEAQQBCAG0ARwBFAEcASwBQAHgAQwB3AHoAaQBQAGwAcwBhAEkAVgBRACIAOgAxAH0ALAAiAEEAPwAiADoAIgBVACIALAAiAGEAIgA6ADQALAAiAGIAIgA6AHsAIgBDACIAOgB7ACIAQQAiADoANAA1ADIALgA1ADAANwA2ADgANQA3ADkAOAAwADAAOQAwADUALAAiAEIAIgA6ADEAMQA1ADkALgA5ADYAOQA1ADEAMwAzADEANAAzADYANwA4AH0AfQAsACIAYwAiADoAewAiAEEAIgA6ACIAQwAiACwAIgBCACIAOgB7ACIAQQAiADoAIgBSAGoAZABpAGcAUAA0AFMAZgBkAHQATABuAGMAWQAwAEEALQBhACIALAAiAEIAIgA6ADAALgA1ACwAIgBEACIAOgAiAEEAIgB9ACwAIgBDACIAOgB7ACIAQQAiADoAMQA1ADEALgA5ADQANAAzADEAMQAxADkAMQAzADUANwA1ADQALAAiAEIAIgA6ADEAMwAwADMALgAxADIANgA0ADYAMgA4ADgANAA4ADkAMAAzAH0AfQAsACIAaQAiADoAewAiAEEAPwAiADoAIgBBACIALAAiAEEAIgA6AFsAewAiAEEAIgA6ADEAMgAwADgALgA5ADYAOQA1ADEAMwAzADEANQA5ADgAMAA3ACwAIgBCACIAOgAiAEIAIgB9AF0ALAAiAEIAIgA6AFsALQAyAF0ALAAiAEMAIgA6ADIANAB9ACwAIgBkACIAOgAiACMAMQBmADQAMgA4ADYAIgAsACIAZgAiADoAdAByAHUAZQB9ACwAewAiAEEAIgA6ADMANwA1AC4ANQA1ADMAOQA5ADYANAAwADQAOAA0ADEAMQAsACIAQgAiADoAMQAyADgAMQAuADYAOAAzADAAOQAzADMANwAxADgAOQA5ACwAIgBEACIAOgAyADQANAAuADkANgA1ADEANAAzADEAOAA2ADgANAA3ADQAOAAsACIAQwAiADoAMgA0ADkALgA0ADUAMAAzADQAOQAwADkAMQA5ADQAOQAyADUALAAiAFQAIgA6AHsAIgBBAEEAQQBCAG0ARwBFAEcASwBQAHgAQwB3AHoAaQBQAGwAcwBhAEkAVgBRACIAOgAxAH0ALAAiAEEAPwAiADoAIgBKACIALAAiAGEAIgA6AHsAIgBEACIAOgA2ADQALAAiAEMAIgA6ADYANAB9ACwAIgBiACIAOgBbAHsAIgBBACIAOgAiAE0AMAAgADAASAA2ADQAVgA2ADQASAAwAHoAIgAsACIAQgAiADoAewAiAEEAIgA6AGYAYQBsAHMAZQAsACIAQwAiADoAIgAjAGYAZgBmAGYAZgBmACIAfQAsACIARAAiADoANQAxAH0AXQAsACIAYwAiADoAewAiAEEAIgA6AHsAIgBEACIAOgA2ADQALAAiAEMAIgA6ADYANAB9ACwAIgBCACIAOgA1ADQALgA2ADEANgA1ADcAMgA3ADkANAAwADgAOAA1ADcALAAiAEMAIgA6ADUANQAuADYAMQA2ADUANwA4ADYAMwA4ADIAOAA5ADkAOAAsACIARAAiADoAIgBBACIALAAiAEUAIgA6ACIAQQAiAH0ALAAiAGUAIgA6AHsAfQAsACIAZgAiADoAWwB7ACIAQQAiADoAewAiAEEAIgA6AFsAewAiAEEAPwAiADoAIgBBACIALAAiAEEAIgA6ACIAXABuACIAfQBdACwAIgBCACIAOgBbAHsAIgBBAD8AIgA6ACIAQQAiACwAIgBBACIAOgB7ACIAZgBvAG4AdAAtAHMAaQB6AGUAIgA6AHsAIgBCACIAOgAiADIANQAuADMAMwAzADMAIgB9ACwAIgBmAG8AbgB0AC0AawBlAHIAbgBpAG4AZwAiADoAewAiAEIAIgA6ACIAbgBvAHIAbQBhAGwAIgB9ACwAIgBmAG8AbgB0AC0AZgBhAG0AaQBsAHkAIgA6AHsAIgBCACIAOgAiAFkAQQBGAGQASgBqAFQAawA1AFUAVQAsADAAIgB9ACwAIgBmAG8AbgB0AC0AdwBlAGkAZwBoAHQAIgA6AHsAIgBCACIAOgAiAG4AbwByAG0AYQBsACIAfQAsACIAZgBvAG4AdAAtAHMAdAB5AGwAZQAiADoAewAiAEIAIgA6ACIAbgBvAHIAbQBhAGwAIgB9ACwAIgB0AGUAeAB0AC0AdAByAGEAbgBzAGYAbwByAG0AIgA6AHsAIgBCACIAOgAiAG4AbwBuAGUAIgB9ACwAIgBsAGUAYQBkAGkAbgBnACIAOgB7ACIAQgAiADoAIgAxADQAMAAwAC4AMAAiAH0ALAAiAHQAcgBhAGMAawBpAG4AZwAiADoAewAiAEIAIgA6ACIAMAAuADAAIgB9ACwAIgB0AGUAeAB0AC0AYQBsAGkAZwBuACIAOgB7ACIAQgAiADoAIgBjAGUAbgB0AGUAcgAiAH0ALAAiAGMAbwBsAG8AcgAiADoAewAiAEIAIgA6ACIAIwBmAGYAZgBmAGYAZgAiAH0AfQB9ACwAewAiAEEAPwAiADoAIgBCACIALAAiAEEAIgA6ADEAfQAsAHsAIgBBAD8AIgA6ACIAQQAiACwAIgBBACIAOgB7ACIAZgBvAG4AdAAtAHMAaQB6AGUAIgA6AHsAfQAsACIAZgBvAG4AdAAtAGsAZQByAG4AaQBuAGcAIgA6AHsAfQAsACIAZgBvAG4AdAAtAGYAYQBtAGkAbAB5ACIAOgB7AH0ALAAiAGYAbwBuAHQALQB3AGUAaQBnAGgAdAAiADoAewB9ACwAIgBmAG8AbgB0AC0AcwB0AHkAbABlACIAOgB7AH0ALAAiAHQAZQB4AHQALQB0AHIAYQBuAHMAZgBvAHIAbQAiADoAewB9ACwAIgBsAGUAYQBkAGkAbgBnACIAOgB7AH0ALAAiAHQAcgBhAGMAawBpAG4AZwAiADoAewB9ACwAIgB0AGUAeAB0AC0AYQBsAGkAZwBuACIAOgB7AH0ALAAiAGMAbwBsAG8AcgAiADoAewB9AH0AfQBdAH0ALAAiAEIAIgA6AHsAIgBBACIAOgBbADAAXQB9ACwAIgBEACIAOgB7ACIARAAiADoANgA0ACwAIgBDACIAOgA2ADQAfQAsACIARQAiADoAWwAzAC4ANQA0ADMAOAA0ADUANgA4ADMAMgAwADYANwA3ADUAMwBdACwAIgBGACIAOgAiAEIAIgB9AF0ALAAiAGgAIgA6AHsAIgBBAD8AIgA6ACIASAAiACwAIgBBACIAOgAyADQAOQAuADQANQAwADMANAA5ADAAOQAxADkANAA5ADIANQB9AH0ALAB7ACIAQQAiADoANAA1ADgALgAyADAAMAAxADgAMgAzADYAMwAyADEAMQAyACwAIgBCACIAOgAxADMAMQA3AC4ANAAwADIANQAzADMANwAzADAAMQA2ADkAMQAsACIARAAiADoAMQA2ADYALgA4ADAANAAxADYAMwAxADMAMwA1ADcAOQAyADcALAAiAEMAIgA6ADEANgA2AC4AOAAwADQAMQA2ADMAMQAzADMANQA3ADkAMgA3ACwAIgBUACIAOgB7ACIAQQBBAEEAQgBtAEcARQBHAEsAUAB4AEMAdwB6AGkAUABsAHMAYQBJAFYAUQAiADoAMQB9ACwAIgBBAD8AIgA6ACIASQAiACwAIgBhACIAOgB7ACIAQgAiADoAewAiAEEAIgA6AHsAIgBBACIAOgAiAE0AQQBHAHUAdgBVAGEANgAxAG8AYwAiACwAIgBCACIAOgAxAH0ALAAiAEIAIgA6AHsAIgBEACIAOgAxADYANgAuADgAMAA0ADEANgAzADEAMwAzADUANwA5ADIANwAsACIAQwAiADoAMQA2ADYALgA4ADAANAAxADYAMwAxADMAMwA1ADcAOQAyADcAfQB9AH0AfQAsAHsAIgBBACIAOgAzADkAMwAuADIANwA3ADMANAAyADMANgAzADIAMQAxACwAIgBCACIAOgAxADIAOQAwAC4AMAA0ADIAOAAyADMAMgAxADYAMwA2ADcAMgAsACIARAAiADoAMgAyADEALgA1ADIAMwA1ADgANAAxADYAMQAxADgAMgA5ADIALAAiAEMAIgA6ADYANAAuADkAMgAyADgANAAwADAAMAAwADAAMAAwADAAMQAsACIAVAAiADoAewAiAEEAQQBBAEIAbQBHAEUARwBLAFAAeABDAHcAegBpAFAAbABzAGEASQBWAFEAIgA6ADEAfQAsACIAQQA/ACIAOgAiAEsAIgAsACIAYQAiADoAewAiAEEAIgA6AFsAewAiAEEAPwAiADoAIgBBACIALAAiAEEAIgA6ACIATQBhAGMAaABpAG4AZQAgAEwAZQBhAHIAbgBpAG4AZwBcAG4AIABNAG8AZABlAGwAIgB9ACwAewAiAEEAPwAiADoAIgBCACIALAAiAEEAIgA6ADEAMwB9ACwAewAiAEEAPwAiADoAIgBBACIALAAiAEEAIgA6ACIAIABmAG8AcgAgAG8AdABoAGUAcgBcAG4AIgB9AF0ALAAiAEIAIgA6AFsAewAiAEEAPwAiADoAIgBBACIALAAiAEEAIgA6AHsAIgB0AGUAeAB0AC0AYQBsAGkAZwBuACIAOgB7ACIAQgAiADoAIgBjAGUAbgB0AGUAcgAiAH0ALAAiAGYAbwBuAHQALQB3AGUAaQBnAGgAdAAiADoAewAiAEIAIgA6ACIAYgBvAGwAZAAiAH0ALAAiAGYAbwBuAHQALQBrAGUAcgBuAGkAbgBnACIAOgB7ACIAQgAiADoAIgBuAG8AcgBtAGEAbAAiAH0ALAAiAGYAbwBuAHQALQBmAGEAbQBpAGwAeQAiADoAewAiAEIAIgA6ACIAWQBBAEYAZABKAHUARgBDAG4AYQB3ACwAMAAiAH0ALAAiAGYAbwBuAHQALQBzAGkAegBlACIAOgB7ACIAQgAiADoAIgAyADUALgAzADgANQA4ACIAfQB9AH0ALAB7ACIAQQA/ACIAOgAiAEIAIgAsACIAQQAiADoANAA2AH0ALAB7ACIAQQA/ACIAOgAiAEEAIgAsACIAQQAiADoAewAiAHMAcABhAGMAaQBuAGcAIgA6AHsAIgBCACIAOgAiADAALgAwACIAfQAsACIAYwBvAGwAbwByACIAOgB7ACIAQgAiADoAIgAjADAAMAAwADAAMAAwACIAfQAsACIAbABlAGEAZABpAG4AZwAiADoAewAiAEIAIgA6ACIAMQA0ADAAMAAuADAAIgB9ACwAIgB0AGUAeAB0AC0AdAByAGEAbgBzAGYAbwByAG0AIgA6AHsAIgBCACIAOgAiAG4AbwBuAGUAIgB9ACwAIgB0AHIAYQBjAGsAaQBuAGcAIgA6AHsAIgBCACIAOgAiADAALgAwACIAfQB9AH0ALAB7ACIAQQA/ACIAOgAiAEIAIgAsACIAQQAiADoAMQB9ACwAewAiAEEAPwAiADoAIgBBACIALAAiAEEAIgA6AHsAIgB0AGUAeAB0AC0AYQBsAGkAZwBuACIAOgB7AH0ALAAiAGYAbwBuAHQALQB3AGUAaQBnAGgAdAAiADoAewB9ACwAIgBmAG8AbgB0AC0AawBlAHIAbgBpAG4AZwAiADoAewB9ACwAIgBmAG8AbgB0AC0AZgBhAG0AaQBsAHkAIgA6AHsAfQAsACIAZgBvAG4AdAAtAHMAaQB6AGUAIgA6AHsAfQAsACIAcwBwAGEAYwBpAG4AZwAiADoAewB9ACwAIgBjAG8AbABvAHIAIgA6AHsAfQAsACIAbABlAGEAZABpAG4AZwAiADoAewB9ACwAIgB0AGUAeAB0AC0AdAByAGEAbgBzAGYAbwByAG0AIgA6AHsAfQAsACIAdAByAGEAYwBrAGkAbgBnACIAOgB7AH0AfQB9AF0AfQAsACIAYgAiADoAewAiAEEAIgA6AFsAMQA3ACwAMQA3AF0AfQAsACIAZAAiADoAIgBBACIALAAiAGUAIgA6ADIAMgAxAC4ANQAyADMANQA4ADQAMQA2ADEAMQA4ADIAOAA3ACwAIgBmACIAOgA2ADQALgA5ADIAMgA4ADQALAAiAGcAIgA6AGYAYQBsAHMAZQAsACIAaAAiADoAIgBBACIAfQAsAHsAIgBBACIAOgA0ADkAOAAuADIAOAAzADcAMgA4ADEAMAA5ADEAMQA2ADcALAAiAEIAIgA6ADEAMQA2ADAALgA5ADcAMAAwADUANwAyADgAMgAyADIAMwAzACwAIgBEACIAOgAxADIAMAAuADcAMQAzADAAMwA2ADIANgAxADcAMQA3ADYANQAsACIAQwAiADoANAAsACIARQAiADoAMAAuADAAMAA0ADMAMgA2ADAANgAwADMAMAA4ADYAMQAyADUAMQA0ADUALAAiAFQAIgA6AHsAIgBBAEEAQQBCAG0ARwBFAEcASwBQAHgAQwB3AHoAaQBQAGwAcwBhAEkAVgBRACIAOgAxAH0ALAAiAEEAPwAiADoAIgBVACIALAAiAGEAIgA6ADQALAAiAGIAIgA6AHsAIgBDACIAOgB7ACIAQQAiADoANQAwADAALgAyADcAOQAxADcAMAA5ADUAMAA4ADEANQA5ADcALAAiAEIAIgA6ADEAMQA2ADAALgA5ADcAMAAwADUANwA0ADUANAAyADYANQAzAH0AfQAsACIAYwAiADoAewAiAEEAIgA6ACIAQwAiACwAIgBCACIAOgB7ACIAQQAiADoAIgBSAGoAZABpAGcAUAA0AFMAZgBkAHQATABuAGMAWQAwAEEALQBlACIALAAiAEIAIgA6ADAALgA2ADIAMgAwADYANgA1ADQAOQA2ADQAOQA4ADkAMwA4ACwAIgBEACIAOgAiAEEAIgB9ACwAIgBDACIAOgB7ACIAQQAiADoANQAwADAALgAyADgAOAAyADgANQAyADYANwA0ADEANwA0ACwAIgBCACIAOgAxADIAOAAxAC4ANgA4ADMAMAA5ADMAMwA3ADEAOAA5ADkAMwB9AH0ALAAiAGQAIgA6ACIAIwAxAGYANAAyADgANgAiACwAIgBmACIAOgB0AHIAdQBlAH0ALAB7ACIAQQAiADoANQAwADAALgAyADkAMgA4ADQAMgA0ADIAMAAwADEANwAzACwAIgBCACIAOgAxADUAMgA2AC4ANgA0ADgAMwA4ADcAMwA5ADQANgA5ADYANgAsACIARAAiADoAMQAyADAALgA3ADEAMwAwADMANgAyADYAMQA3ADEANwA2ADUALAAiAEMAIgA6ADQALAAiAEUAIgA6ADAALgAwADAANAAzADIANgAwADYAMAAzADAAOAA2ADEAMgA1ADEANAA1ACwAIgBUACIAOgB7ACIAQQBBAEEAQgBtAEcARQBHAEsAUAB4AEMAdwB6AGkAUABsAHMAYQBJAFYAUQAiADoAMQB9ACwAIgBBAD8AIgA6ACIAVQAiACwAIgBhACIAOgA0ACwAIgBiACIAOgB7ACIAQwAiADoAewAiAEEAIgA6ADUAMAAyAC4AMgA4ADgAMgA4ADUAMgA2ADEANwAxADYANQA3ACwAIgBCACIAOgAxADUAMgA2AC4ANgA0ADgAMwA4ADcANQA2ADYANwAzADgAMgB9AH0ALAAiAGMAIgA6AHsAIgBBACIAOgAiAEMAIgAsACIAQwAiADoAewAiAEEAIgA6ADUAMAAyAC4AMgA5ADcAMwA5ADkANQA3ADgAMwAxADgALAAiAEIAIgA6ADEANgA0ADcALgAzADYAMQA0ADIAMwA0ADgANAAzADcAMgAyAH0AfQAsACIAZAAiADoAIgAjADEAZgA0ADIAOAA2ACIALAAiAGUAIgA6AFsAMwAsADEAXQAsACIAZgAiADoAdAByAHUAZQB9ACwAewAiAEEAIgA6ADMAOQAzAC4AOQAwADQAOAAzADUAMAA4ADgAOAAxADYAMAA3ACwAIgBCACIAOgA5ADUANwAuADIANQA2ADIANgA4ADMAMgAzADMAMQA1ADIALAAiAEQAIgA6ADIAMAAyAC4ANwAxADMAMgA0ADQAOQA5ADEAMAA1ADIANwAsACIAQwAiADoAMgAxADYALgA3ADYANgA5ADAAMAAzADQANQA4ADAAMAA4ADIALAAiAFQAIgA6AHsAIgBBAEEAQQBCAG0ARwBFAEcASwBQAHgAQwB3AHoAaQBQAGwAcwBhAEkAVgBRACIAOgAxAH0ALAAiAFcAIgA6AHsAIgBSAGoAZABpAGcAUAA0AFMAZgBkAHQATABuAGMAWQAwAEEAIgA6ACIAUgBqAGQAaQBnAFAANABTAGYAZAB0AEwAbgBjAFkAMABBAC0AOQAiAH0ALAAiAEEAPwAiADoAIgBKACIALAAiAGEAIgA6AHsAIgBEACIAOgA2ADQALAAiAEMAIgA6ADYANAB9ACwAIgBiACIAOgBbAHsAIgBBACIAOgAiAE0AMAAgADAASAA2ADQAVgA2ADQASAAwAHoAIgAsACIAQgAiADoAewAiAEEAIgA6AGYAYQBsAHMAZQAsACIAQwAiADoAIgAjAGYAZgBmAGYAZgBmACIAfQAsACIARAAiADoANQAxAH0AXQAsACIAYwAiADoAewAiAEEAIgA6AHsAIgBEACIAOgA2ADQALAAiAEMAIgA6ADYANAB9ACwAIgBCACIAOgAzADYALgAxADQAMwA3ADAANwAwADkANQAyADYAMgAyADEANQAsACIAQwAiADoAMwA4AC4ANgA0ADkANAA2ADkAMwA3ADQAMgA5ADkAMgA5ACwAIgBEACIAOgAiAEEAIgAsACIARQAiADoAIgBBACIAfQAsACIAZQAiADoAewB9ACwAIgBmACIAOgBbAHsAIgBBACIAOgB7ACIAQQAiADoAWwB7ACIAQQA/ACIAOgAiAEEAIgAsACIAQQAiADoAIgBcAG4AIgB9AF0ALAAiAEIAIgA6AFsAewAiAEEAPwAiADoAIgBBACIALAAiAEEAIgA6AHsAIgBmAG8AbgB0AC0AcwBpAHoAZQAiADoAewAiAEIAIgA6ACIAMgA1AC4AMwAzADMAOAAiAH0ALAAiAGYAbwBuAHQALQBrAGUAcgBuAGkAbgBnACIAOgB7ACIAQgAiADoAIgBuAG8AcgBtAGEAbAAiAH0ALAAiAGYAbwBuAHQALQBmAGEAbQBpAGwAeQAiADoAewAiAEIAIgA6ACIAWQBBAEYAZABKAGoAVABrADUAVQBVACwAMAAiAH0ALAAiAGYAbwBuAHQALQB3AGUAaQBnAGgAdAAiADoAewAiAEIAIgA6ACIAbgBvAHIAbQBhAGwAIgB9ACwAIgBmAG8AbgB0AC0AcwB0AHkAbABlACIAOgB7ACIAQgAiADoAIgBuAG8AcgBtAGEAbAAiAH0ALAAiAHQAZQB4AHQALQB0AHIAYQBuAHMAZgBvAHIAbQAiADoAewAiAEIAIgA6ACIAbgBvAG4AZQAiAH0ALAAiAGwAZQBhAGQAaQBuAGcAIgA6AHsAIgBCACIAOgAiADEANAAwADAALgAwACIAfQAsACIAdAByAGEAYwBrAGkAbgBnACIAOgB7ACIAQgAiADoAIgAwAC4AMAAiAH0ALAAiAHQAZQB4AHQALQBhAGwAaQBnAG4AIgA6AHsAIgBCACIAOgAiAGMAZQBuAHQAZQByACIAfQAsACIAYwBvAGwAbwByACIAOgB7ACIAQgAiADoAIgAjAGYAZgBmAGYAZgBmACIAfQB9AH0ALAB7ACIAQQA/ACIAOgAiAEIAIgAsACIAQQAiADoAMQB9ACwAewAiAEEAPwAiADoAIgBBACIALAAiAEEAIgA6AHsAIgBmAG8AbgB0AC0AcwBpAHoAZQAiADoAewB9ACwAIgBmAG8AbgB0AC0AawBlAHIAbgBpAG4AZwAiADoAewB9ACwAIgBmAG8AbgB0AC0AZgBhAG0AaQBsAHkAIgA6AHsAfQAsACIAZgBvAG4AdAAtAHcAZQBpAGcAaAB0ACIAOgB7AH0ALAAiAGYAbwBuAHQALQBzAHQAeQBsAGUAIgA6AHsAfQAsACIAdABlAHgAdAAtAHQAcgBhAG4AcwBmAG8AcgBtACIAOgB7AH0ALAAiAGwAZQBhAGQAaQBuAGcAIgA6AHsAfQAsACIAdAByAGEAYwBrAGkAbgBnACIAOgB7AH0ALAAiAHQAZQB4AHQALQBhAGwAaQBnAG4AIgA6AHsAfQAsACIAYwBvAGwAbwByACIAOgB7AH0AfQB9AF0AfQAsACIAQgAiADoAewAiAEEAIgA6AFsAMABdAH0ALAAiAEQAIgA6AHsAIgBEACIAOgA2ADQALAAiAEMAIgA6ADYANAB9ACwAIgBFACIAOgBbADQALgA0ADMAMQA0ADMANQAwADMAMwA2ADkAMgA3ADMAOQBdACwAIgBGACIAOgAiAEIAIgB9AF0ALAAiAGgAIgA6AHsAIgBBAD8AIgA6ACIASAAiACwAIgBBACIAOgAyADEANgAuADcANgA2ADkAMAAwADMANAA1ADgAMAAwADgAMgB9AH0ALAB7ACIAQQAiADoANAAwADgALgA2ADUANwAyADEAMgAyADgAOAAxADEANQA5ACwAIgBCACIAOgA5ADgANwAuADgAMQA5ADkANwAwADYAMQA3ADkAOQA3ADMALAAiAEQAIgA6ADEAMwA5AC4ANQA4ADUAOAA0ADAANAAwADEANgA4ADgANAAyACwAIgBDACIAOgAxADUANAAuADUAOQA2ADkAMgA1ADgAMwA0ADIANQA1ADYANAAsACIAVAAiADoAewAiAEEAQQBBAEIAbQBHAEUARwBLAFAAeABDAHcAegBpAFAAbABzAGEASQBWAFEAIgA6ADEAfQAsACIAVwAiADoAewAiAFIAagBkAGkAZwBQADQAUwBmAGQAdABMAG4AYwBZADAAQQAiADoAIgBSAGoAZABpAGcAUAA0AFMAZgBkAHQATABuAGMAWQAwAEEALQA4ACIAfQAsACIAQQA/ACIAOgAiAEkAIgAsACIAYQAiADoAewAiAEEAIgA6AGYAYQBsAHMAZQAsACIAQgAiADoAewAiAEEAIgA6AHsAIgBBACIAOgAiAE0AQQBGADQAeQA2AFkAdAA5AE4AQQAiACwAIgBCACIAOgAxAH0ALAAiAEIAIgA6AHsAIgBEACIAOgAxADMAOQAuADUAOAA1ADgANAAwADQAMAAxADYAOAA4ADQAMgAsACIAQwAiADoAMQA1ADQALgA1ADkANgA5ADIANQA4ADMANAAyADUANQA2ADQAfQB9AH0AfQAsAHsAIgBBACIAOgA1ADYAOQAuADAAMAA2ADUAMQA1ADMAMgAxADYANwAxADUALAAiAEIAIgA6ADEAMAAwADAALgA2ADkANAAyADAAMAAyADAAMAAyADkANwAxACwAIgBEACIAOgAxADEAMwAuADgAMwA3ADMAOAAxADIAMwAzADgANgAyADkANwAsACIAQwAiADoAMgA2AC4ANAA2ADYANgA2ACwAIgBUACIAOgB7ACIAQQBBAEEAQgBtAEcARQBHAEsAUAB4AEMAdwB6AGkAUABsAHMAYQBJAFYAUQAiADoAMQB9ACwAIgBBAD8AIgA6ACIASwAiACwAIgBhACIAOgB7ACIAQQAiADoAWwB7ACIAQQA/ACIAOgAiAEEAIgAsACIAQQAiADoAIgBEAGEAdABhACAAQgBhAHMAZQAiAH0ALAB7ACIAQQA/ACIAOgAiAEIAIgAsACIAQQAiADoANwB9ACwAewAiAEEAPwAiADoAIgBBACIALAAiAEEAIgA6ACIAXABuACIAfQBdACwAIgBCACIAOgBbAHsAIgBBAD8AIgA6ACIAQQAiACwAIgBBACIAOgB7ACIAZgBvAG4AdAAtAGYAYQBtAGkAbAB5ACIAOgB7ACIAQgAiADoAIgBZAEEARgBkAEoAagBUAGsANQBVAFUALAAwACIAfQAsACIAZgBvAG4AdAAtAHMAaQB6AGUAIgA6AHsAIgBCACIAOgAiADIAMgAuADYANgA2ADcAIgB9ACwAIgB0AGUAeAB0AC0AYQBsAGkAZwBuACIAOgB7ACIAQgAiADoAIgBjAGUAbgB0AGUAcgAiAH0ALAAiAGYAbwBuAHQALQBrAGUAcgBuAGkAbgBnACIAOgB7ACIAQgAiADoAIgBuAG8AcgBtAGEAbAAiAH0AfQB9ACwAewAiAEEAPwAiADoAIgBCACIALAAiAEEAIgA6ADEAMwB9ACwAewAiAEEAPwAiADoAIgBBACIALAAiAEEAIgA6AHsAIgBzAHAAYQBjAGkAbgBnACIAOgB7ACIAQgAiADoAIgAwAC4AMAAiAH0ALAAiAGYAbwBuAHQALQB3AGUAaQBnAGgAdAAiADoAewAiAEIAIgA6ACIAbgBvAHIAbQBhAGwAIgB9ACwAIgBmAG8AbgB0AC0AcwB0AHkAbABlACIAOgB7ACIAQgAiADoAIgBuAG8AcgBtAGEAbAAiAH0ALAAiAHQAZQB4AHQALQB0AHIAYQBuAHMAZgBvAHIAbQAiADoAewAiAEIAIgA6ACIAbgBvAG4AZQAiAH0ALAAiAGwAZQBhAGQAaQBuAGcAIgA6AHsAIgBCACIAOgAiADEANAAwADAALgAwACIAfQAsACIAdAByAGEAYwBrAGkAbgBnACIAOgB7ACIAQgAiADoAIgAwAC4AMAAiAH0ALAAiAGMAbwBsAG8AcgAiADoAewAiAEIAIgA6ACIAIwAwADAAMAAwADAAMAAiAH0AfQB9ACwAewAiAEEAPwAiADoAIgBCACIALAAiAEEAIgA6ADQAfQAsAHsAIgBBAD8AIgA6ACIAQQAiACwAIgBBACIAOgB7ACIAZgBvAG4AdAAtAGYAYQBtAGkAbAB5ACIAOgB7AH0ALAAiAGYAbwBuAHQALQBzAGkAegBlACIAOgB7AH0ALAAiAHQAZQB4AHQALQBhAGwAaQBnAG4AIgA6AHsAfQAsACIAZgBvAG4AdAAtAGsAZQByAG4AaQBuAGcAIgA6AHsAfQAsACIAcwBwAGEAYwBpAG4AZwAiADoAewB9ACwAIgBmAG8AbgB0AC0AdwBlAGkAZwBoAHQAIgA6AHsAfQAsACIAZgBvAG4AdAAtAHMAdAB5AGwAZQAiADoAewB9ACwAIgB0AGUAeAB0AC0AdAByAGEAbgBzAGYAbwByAG0AIgA6AHsAfQAsACIAbABlAGEAZABpAG4AZwAiADoAewB9ACwAIgB0AHIAYQBjAGsAaQBuAGcAIgA6AHsAfQAsACIAYwBvAGwAbwByACIAOgB7AH0AfQB9AF0AfQAsACIAYgAiADoAewAiAEEAIgA6AFsANwBdAH0ALAAiAGQAIgA6ACIAQQAiACwAIgBnACIAOgBmAGEAbABzAGUALAAiAGgAIgA6ACIAQQAiAH0AXQB9AF0ALAAiAEIAIgA6ADEAOQAyADAALAAiAEMAIgA6ADEAMAA4ADAAfQA=&quot;&gt;&lt;/span&gt;&lt;div&gt;&lt;div&gt;&lt;div style=&quot;line-height: 1.4; direction: ltr; letter-spacing: 0em; text-transform: none; text-align: center;&quot;&gt;&lt;p&gt;&lt;span style=&quot;color: light-dark(rgb(0, 0, 0), rgb(237, 237, 237)); letter-spacing: 0em; background-color: transparent;&quot;&gt;Pre-processing&lt;/span&gt;&lt;/p&gt;&lt;/div&gt;&lt;/div&gt;&lt;div&gt;&lt;div style=&quot;line-height: 1.4; direction: ltr; letter-spacing: 0em; text-transform: none; text-align: center;&quot;&gt;&lt;p&gt;&lt;span style=&quot;font-style: normal; color: rgb(0, 0, 0);&quot;&gt;Validation&lt;/span&gt;&lt;/p&gt;&lt;/div&gt;&lt;/div&gt;&lt;div&gt;&lt;div style=&quot;line-height: 1.4; direction: ltr; letter-spacing: 0em; text-transform: none; text-align: center;&quot;&gt;&lt;p&gt;&lt;span style=&quot;font-style: normal; color: rgb(0, 0, 0);&quot;&gt;Validation&lt;/span&gt;&lt;/p&gt;&lt;/div&gt;&lt;/div&gt;&lt;div&gt;&lt;div style=&quot;line-height: 1.4; direction: ltr; letter-spacing: 0em; text-transform: none; text-align: center;&quot;&gt;&lt;p&gt;&lt;span style=&quot;font-style: normal; color: rgb(0, 0, 0);&quot;&gt;Machine Learning&lt;/span&gt;&lt;/p&gt;&lt;/div&gt;&lt;div style=&quot;line-height: 1.4; direction: ltr; letter-spacing: 0em; text-transform: none; text-align: center;&quot;&gt;&lt;p&gt;&lt;span style=&quot;font-style: normal; color: rgb(0, 0, 0);&quot;&gt; Model for diabetes &lt;/span&gt;&lt;/p&gt;&lt;/div&gt;&lt;/div&gt;&lt;div&gt;&lt;div style=&quot;line-height: 1.4; direction: ltr; letter-spacing: 0em; text-transform: none; text-align: center;&quot;&gt;&lt;p&gt;&lt;span style=&quot;font-style: normal; color: rgb(0, 0, 0);&quot;&gt;RF, Ada Boost, SMOTE, DNN, hybrid &lt;/span&gt;&lt;/p&gt;&lt;/div&gt;&lt;/div&gt;&lt;div&gt;&lt;div style=&quot;line-height: 1.4; direction: ltr; letter-spacing: 0em; text-transform: none; text-align: center;&quot;&gt;&lt;p&gt;&lt;span style=&quot;font-style: normal; color: rgb(0, 0, 0);&quot;&gt;Prediction&lt;/span&gt;&lt;/p&gt;&lt;/div&gt;&lt;/div&gt;&lt;div&gt;&lt;div style=&quot;line-height: 1.4; direction: ltr; letter-spacing: 0em; text-transform: none; text-align: center;&quot;&gt;&lt;p&gt;&lt;span style=&quot;font-style: normal; color: rgb(0, 0, 0);&quot;&gt;Chatbot&lt;/span&gt;&lt;/p&gt;&lt;/div&gt;&lt;/div&gt;&lt;div&gt;&lt;div style=&quot;line-height: 1.4; direction: ltr; letter-spacing: 0em; text-transform: none; text-align: center;&quot;&gt;&lt;p&gt;&lt;span style=&quot;font-style: normal; color: rgb(0, 0, 0);&quot;&gt;Tabular Data&lt;/span&gt;&lt;/p&gt;&lt;/div&gt;&lt;div style=&quot;line-height: 1.4; direction: ltr; letter-spacing: 0em; text-transform: none; text-align: center;&quot;&gt;&lt;p&gt;&lt;span style=&quot;font-style: normal; color: rgb(0, 0, 0);&quot;&gt;FBS&lt;/span&gt;&lt;span style=&quot;font-style: normal; color: rgb(0, 0, 0);&quot;&gt;, OGTT&lt;/span&gt;&lt;span style=&quot;font-style: normal; color: rgb(0, 0, 0);&quot;&gt;, HbA1c, RBS, &lt;/span&gt;&lt;span style=&quot;font-style: normal; color: rgb(0, 0, 0);&quot;&gt;3P’s&lt;/span&gt;&lt;/p&gt;&lt;/div&gt;&lt;/div&gt;&lt;div&gt;&lt;div style=&quot;line-height: 1.4; direction: ltr; letter-spacing: 0em; text-transform: none; text-align: center;&quot;&gt;&lt;p&gt;&lt;span style=&quot;font-style: normal; color: rgb(0, 0, 0);&quot;&gt;Data Set&lt;/span&gt;&lt;/p&gt;&lt;/div&gt;&lt;/div&gt;&lt;div&gt;&lt;div style=&quot;line-height: 1.4; direction: ltr; letter-spacing: 0em; text-transform: none; text-align: center;&quot;&gt;&lt;p&gt;&lt;span style=&quot;font-style: normal; color: rgb(0, 0, 0);&quot;&gt;Train &amp;amp;&lt;/span&gt;&lt;/p&gt;&lt;/div&gt;&lt;div style=&quot;line-height: 1.4; direction: ltr; letter-spacing: 0em; text-transform: none; text-align: center;&quot;&gt;&lt;p&gt;&lt;span style=&quot;font-style: normal; color: rgb(0, 0, 0);&quot;&gt;Test&lt;/span&gt;&lt;/p&gt;&lt;/div&gt;&lt;/div&gt;&lt;div&gt;&lt;div style=&quot;line-height: 1.4; direction: ltr; letter-spacing: 0em; text-transform: none; text-align: center;&quot;&gt;&lt;p&gt;&lt;span style=&quot;font-style: normal; color: rgb(0, 0, 0);&quot;&gt;LLM&lt;/span&gt;&lt;/p&gt;&lt;/div&gt;&lt;/div&gt;&lt;div&gt;&lt;div style=&quot;line-height: 1.4; direction: ltr; letter-spacing: 0em; text-transform: none; text-align: center;&quot;&gt;&lt;p&gt;&lt;span style=&quot;font-style: normal; color: rgb(0, 0, 0);&quot;&gt;Machine Learning&lt;/span&gt;&lt;/p&gt;&lt;/div&gt;&lt;div style=&quot;line-height: 1.4; direction: ltr; letter-spacing: 0em; text-transform: none; text-align: center;&quot;&gt;&lt;p&gt;&lt;span style=&quot;font-style: normal; color: rgb(0, 0, 0);&quot;&gt; Model&lt;/span&gt;&lt;span style=&quot;font-style: normal; color: rgb(0, 0, 0);&quot;&gt; for other&lt;/span&gt;&lt;/p&gt;&lt;/div&gt;&lt;/div&gt;&lt;div&gt;&lt;div style=&quot;line-height: 1.4; direction: ltr; letter-spacing: 0em; text-transform: none; text-align: center;&quot;&gt;&lt;p&gt;&lt;span style=&quot;font-style: normal; color: rgb(0, 0, 0);&quot;&gt;Data Base&lt;/span&gt;&lt;/p&gt;&lt;/div&gt;&lt;/div&gt;&lt;/div&gt;" style="text;whiteSpace=wrap;html=1;fontSize=12;fontStyle=0" vertex="1" parent="1">
          <mxGeometry x="464" y="20" width="226" height="550" as="geometry" />
        </mxCell>
        <mxCell id="elF9djI0Z06_dVAVMSv7-7" value="&lt;span style=&quot;&quot;&gt;Data Processing&lt;/span&gt;" style="rounded=0;whiteSpace=wrap;html=1;fontSize=12;fontStyle=0" vertex="1" parent="1">
          <mxGeometry x="120" y="120" width="100" height="30" as="geometry" />
        </mxCell>
        <mxCell id="elF9djI0Z06_dVAVMSv7-8" value="&lt;b&gt;Input Data&lt;/b&gt;" style="rounded=0;whiteSpace=wrap;html=1;fontSize=12;fontStyle=0" vertex="1" parent="1">
          <mxGeometry x="120" y="60" width="100" height="30" as="geometry" />
        </mxCell>
      </root>
    </mxGraphModel>
  </diagram>
</mxfile>
